<svg
   xmlns="http://www.w3.org/2000/svg"
   viewBox="0 0 100 100"
   version="1.1"
  >
  <style>
  @keyframes brush {
    0% { stroke-dashoffset: 27; }
    100% { stroke-dashoffset: 0; }
  }

  .maskpath {
    stroke-dasharray: 27;
    stroke-dashoffset: 27;
  }

  .animated .maskpath {
    animation-name: brush;
    animation-duration: .25s;
    animation-delay: .068s;
    animation-timing-function: ease-out;
    animation-duration: .25s;
    animation-iteration-count: 2;
  }

  .animation-paused * {
    animation-play-state: paused;
  }
  </style>
  <defs id="defs">
    <mask maskUnits="userSpaceOnUse" id="mask">
      <path
         style="stroke:#ffffff;stroke-width:3.565;"
         d="M 21.969866,67.988466 C 18.295746,70.04043 14.900453,72.590885 11.90625,75.54799 9.015586,78.402839 6.4990687,81.636086 4.4412202,85.139136"
         id="maskpath7"
         class="maskpath" />
      <path
         style="stroke:#ffffff;stroke-width:3.565;"
         d="m 16.57071,58.398391 c -3.179253,0.827006 -6.231991,2.138553 -9.020346,3.875408 -2.571673,1.601885 -4.918117,3.564776 -6.94900757,5.813113"
         id="maskpath7"
         class="maskpath" />
      <path
         style="stroke:#ffffff;stroke-width:3.96499;"
         d="M 29.533284,28.063301 C 26.578311,24.194244 23.054263,20.760556 19.109771,17.907058 15.765711,15.48792 12.12061,13.485365 8.2853554,11.960311"
         id="maskpath7"
         class="maskpath" />
      <path
         style="stroke:#ffffff;stroke-width:4.265;"
         d="M 36.348657,20.045214 C 35.226167,16.453091 33.373495,13.090835 30.936449,10.223059 28.645628,7.5273528 25.840923,5.2699074 22.717909,3.6081385"
         id="maskpath7"
         class="maskpath" />
      <path
         style="stroke:#ffffff;stroke-width:3.86501;"
         d="m 63.610146,19.978397 c 1.131474,-3.125208 2.761969,-6.069156 4.810853,-8.68626 2.327118,-2.9725 5.194152,-5.5209764 8.418986,-7.4835462"
         id="maskpath7"
         class="maskpath" />
      <path
         style="stroke:#ffffff;stroke-width:3.76499;"
         d="m 70.759606,28.196934 c 2.802797,-3.744913 6.144061,-7.086175 9.888974,-9.888972 3.482795,-2.60662 7.31375,-4.747448 11.358954,-6.347651"
         id="maskpath7"
         class="maskpath" />
      <path
         style="stroke:#ffffff;stroke-width:3.86501;"
         d="m 82.280691,58.231955 c 3.21789,0.47639 6.341394,1.582127 9.142299,3.236423 2.870693,1.695515 5.40005,3.96628 7.394157,6.638206"
         id="maskpath7"
         class="maskpath" />
      <path
         style="stroke:#ffffff;stroke-width:3.565;"
         d="m 77.343376,68.082962 c 3.615827,1.740999 6.959881,4.045035 9.874631,6.80357 3.125593,2.958078 5.755821,6.43832 7.748508,10.252604"
         id="maskpath7"
         class="maskpath" />
    </mask>
  </defs>
  <g id="layer1" mask="url(#mask)">
    <!-- Explosion -->
    <path
       style="fill:#26ccff;"
       id="explosion1"
       d="m 62.741846,18.033195 c 0.48315,-2.131916 1.805917,-3.96025 3.022477,-5.732371 1.722005,-2.4188551 3.887221,-4.4554128 6.08688,-6.4294423 C 72.676442,5.0915271 73.58724,4.4200169 74.535143,3.8 c 0,0 2.843653,1.8330839 2.843653,1.8330839 v 0 c -0.971372,0.5761225 -1.90381,1.2090995 -2.745396,1.9676239 -2.219321,1.9168351 -4.353147,3.9530772 -6.071885,6.3433332 -1.070349,1.576586 -2.343984,3.364382 -2.710373,5.274978 -0.024,0.125118 -0.02336,0.253721 -0.03506,0.380582 0,0 -3.074244,-1.566406 -3.074244,-1.566406 z" />
  <path
       style="fill:#a25afd;"
       id="explosion2"
       d="m 30.056558,26.303403 c -0.721791,-0.981364 -1.536764,-1.891362 -2.36565,-2.782298 -0.982425,-1.05597 -1.941987,-2.052449 -3.025394,-3.008928 -0.585748,-0.517125 -1.205404,-0.994524 -1.808105,-1.491785 -0.649201,-0.471199 -1.282869,-0.964577 -1.947603,-1.413597 -1.306528,-0.882545 -3.065628,-1.907948 -4.434218,-2.67933 -1.908116,-1.075477 -3.854084,-2.075489 -5.809442,-3.061096 0,0 -2.668269,1.760134 -2.668269,1.760134 v 0 c 4.262003,1.991114 8.462044,4.187182 12.213095,7.049638 0.593031,0.494662 1.203474,0.969166 1.779093,1.483986 1.06495,0.952465 2.013814,1.943185 2.95198,3.01773 0.67749,0.775975 1.230119,1.465153 1.796887,2.304911 0.111225,0.164801 0.20285,0.342014 0.304276,0.513022 0,0 3.01335,-1.692387 3.01335,-1.692387 z" />
  <path
       style="fill:#ff5e7e;"
       id="explosion3"
       d="m 37.484872,18.033083 c -0.48315,-2.131916 -1.805918,-3.96025 -3.022478,-5.732371 -1.722006,-2.4188554 -3.887221,-4.455413 -6.08688,-6.4294425 -0.82524,-0.7798546 -1.736037,-1.4513648 -2.683941,-2.0713817 0,0 -2.843652,1.8330839 -2.843652,1.8330839 v 0 c 0.971372,0.5761225 1.903809,1.2090995 2.745395,1.9676239 2.219321,1.9168351 4.353149,3.9530774 6.071885,6.3433334 1.07035,1.576586 2.343986,3.364382 2.710375,5.274978 0.024,0.125118 0.02336,0.253721 0.03505,0.380582 0,0 3.074244,-1.566406 3.074244,-1.566406 z" />
  <path
       style="fill:#ff36ff;"
       id="explosion4"
       d="m 70.17016,26.303515 c 0.721791,-0.981364 1.536763,-1.891362 2.365649,-2.782298 0.982424,-1.05597 1.941987,-2.052449 3.025393,-3.008928 0.585749,-0.517125 1.205405,-0.994524 1.808106,-1.491785 0.649199,-0.471199 1.282868,-0.964577 1.947601,-1.413597 1.306529,-0.882545 3.065628,-1.907948 4.434218,-2.67933 1.908117,-1.075477 3.854085,-2.075489 5.809442,-3.061096 0,0 2.668269,1.760134 2.668269,1.760134 v 0 c -4.262004,1.991114 -8.462043,4.187182 -12.213094,7.049638 -0.593031,0.494662 -1.203473,0.969166 -1.779093,1.483986 -1.064949,0.952465 -2.013813,1.943185 -2.95198,3.01773 -0.67749,0.775975 -1.230119,1.465153 -1.796887,2.304911 -0.111216,0.164801 -0.20285,0.342014 -0.304276,0.513022 0,0 -3.013348,-1.692387 -3.013348,-1.692387 z" />
  <path
       style="fill:#ff9300;"
       id="explosion5"
       d="m 79.155325,67.239117 c 0.989176,0.522523 1.9258,1.138662 2.846928,1.769889 1.091754,0.748152 2.126322,1.483506 3.140962,2.336037 0.548571,0.460924 1.065498,0.957731 1.598244,1.436595 0.515214,0.52432 1.048548,1.031677 1.545644,1.572959 0.977037,1.063888 2.144303,2.517807 3.028428,3.652449 1.232664,1.581941 2.401685,3.20805 3.558842,4.844545 0,0 -1.246916,2.64327 -1.246916,2.64327 v 0 c -2.379164,-3.587752 -4.936614,-7.092449 -8.040817,-10.103466 -0.529095,-0.470471 -1.04216,-0.959336 -1.587286,-1.411413 -1.008531,-0.836385 -2.036435,-1.562833 -3.139205,-2.268544 -0.796358,-0.509624 -1.497107,-0.917901 -2.336784,-1.319062 -0.164786,-0.07873 -0.338258,-0.138103 -0.507388,-0.207155 0,0 1.139348,-2.946104 1.139348,-2.946104 z" />
    <path
       style="fill:#26ccff;"
       id="explosion6"
       d="m 84.67938,57.119476 c 1.938001,0.155394 3.716883,1.111794 5.432642,1.979404 2.349827,1.239935 4.420285,2.932112 6.440153,4.663781 0.792337,0.644464 1.500346,1.380806 2.16782,2.157591 0,0 -1.247146,2.819502 -1.247146,2.819502 v 0 c -0.63187,-0.803865 -1.308756,-1.564918 -2.084429,-2.22702 -1.972073,-1.757061 -4.038214,-3.420839 -6.362459,-4.661601 -1.524902,-0.761026 -3.261793,-1.678277 -4.990039,-1.757187 -0.113174,-0.0051 -0.226253,0.01244 -0.339379,0.01865 0,0 0.982837,-2.99312 0.982837,-2.99312 z" />
  <path
       style="fill:#ff36ff;"
       id="explosion7"
       d="m 20.474058,67.239117 c -0.989171,0.522523 -1.925789,1.138662 -2.846911,1.769889 -1.091748,0.748152 -2.12631,1.483506 -3.140944,2.336037 -0.548568,0.460924 -1.065492,0.957731 -1.598235,1.436595 -0.51521,0.52432 -1.048541,1.031677 -1.545635,1.572959 -0.97703,1.063888 -2.1442884,2.517807 -3.0284078,3.652449 -1.2326564,1.581941 -2.4016698,3.20805 -3.5588192,4.844545 0,0 1.2469074,2.64327 1.2469074,2.64327 v 0 c 2.3791488,-3.587752 4.9365826,-7.092449 8.0407676,-10.103466 0.529092,-0.470471 1.042154,-0.959336 1.587276,-1.411413 1.008525,-0.836385 2.036423,-1.562833 3.139187,-2.268544 0.796353,-0.509624 1.497098,-0.917901 2.336771,-1.319062 0.164784,-0.07873 0.338254,-0.138103 0.507384,-0.207155 0,0 -1.139341,-2.946104 -1.139341,-2.946104 z" />
  <path
       style="fill:#38d100;"
       id="explosion8"
       d="m 14.950026,57.308464 c -1.937989,0.155394 -3.71686,1.111794 -5.4326088,1.979404 -2.3498121,1.239935 -4.4202569,2.932112 -6.4401117,4.663781 -0.7923317,0.644464 -1.5003361,1.380806 -2.16780675,2.157591 0,0 1.24713905,2.819502 1.24713905,2.819502 v 0 c 0.6318647,-0.803865 1.3087464,-1.564918 2.0844151,-2.22702 1.9720598,-1.757061 4.0381876,-3.420839 6.3624191,-4.661601 1.524892,-0.761026 3.261773,-1.678277 4.990009,-1.757187 0.113171,-0.0051 0.226251,0.01244 0.339377,0.01865 0,0 -0.982832,-2.99312 -0.982832,-2.99312 z" />
  </g>
</svg>
