<?xml version="1.0" encoding="UTF-8" standalone="no"?>
<svg
   xmlns:dc="http://purl.org/dc/elements/1.1/"
   xmlns:cc="http://creativecommons.org/ns#"
   xmlns:rdf="http://www.w3.org/1999/02/22-rdf-syntax-ns#"
   xmlns:svg="http://www.w3.org/2000/svg"
   xmlns="http://www.w3.org/2000/svg"
   xmlns:sodipodi="http://sodipodi.sourceforge.net/DTD/sodipodi-0.dtd"
   xmlns:inkscape="http://www.inkscape.org/namespaces/inkscape"
   width="100mm"
   height="100mm"
   viewBox="0 0 100 100"
   version="1.1"
   id="svg8"
   inkscape:version="1.0.1 (3bc2e813f5, 2020-09-07)"
   sodipodi:docname="alien.svg">
  <defs
     id="defs2">
    <inkscape:path-effect
       effect="spiro"
       id="path-effect1269"
       is_visible="true"
       lpeversion="1" />
    <inkscape:path-effect
       effect="spiro"
       id="path-effect1259"
       is_visible="true"
       lpeversion="1" />
    <inkscape:path-effect
       effect="spiro"
       id="path-effect1255"
       is_visible="true"
       lpeversion="1" />
    <inkscape:path-effect
       effect="spiro"
       id="path-effect1247"
       is_visible="true"
       lpeversion="1" />
    <marker
       style="overflow:visible;"
       id="Arrow1Lend"
       refX="0.0"
       refY="0.0"
       orient="auto"
       inkscape:stockid="Arrow1Lend"
       inkscape:isstock="true">
      <path
         transform="scale(0.8) rotate(180) translate(12.5,0)"
         style="fill-rule:evenodd;stroke:#000000;stroke-width:1pt;stroke-opacity:1;fill:#000000;fill-opacity:1"
         d="M 0.0,0.0 L 5.0,-5.0 L -12.5,0.0 L 5.0,5.0 L 0.0,0.0 z "
         id="path952" />
    </marker>
    <inkscape:path-effect
       effect="spiro"
       id="path-effect945"
       is_visible="true"
       lpeversion="1" />
    <inkscape:path-effect
       effect="spiro"
       id="path-effect921"
       is_visible="true"
       lpeversion="1" />
    <inkscape:path-effect
       effect="spiro"
       id="path-effect909"
       is_visible="true"
       lpeversion="1" />
    <inkscape:path-effect
       effect="spiro"
       id="path-effect872"
       is_visible="true"
       lpeversion="1" />
    <inkscape:path-effect
       effect="spiro"
       id="path-effect860"
       is_visible="true"
       lpeversion="1" />
    <inkscape:path-effect
       effect="spiro"
       id="path-effect886"
       is_visible="true"
       lpeversion="1" />
  </defs>
  <sodipodi:namedview
     id="base"
     pagecolor="#ffffff"
     bordercolor="#666666"
     borderopacity="1.0"
     inkscape:pageopacity="0.0"
     inkscape:pageshadow="2"
     inkscape:zoom="1.979899"
     inkscape:cx="178.67001"
     inkscape:cy="171.8284"
     inkscape:document-units="mm"
     inkscape:current-layer="layer1"
     inkscape:document-rotation="0"
     showgrid="false"
     inkscape:window-width="1920"
     inkscape:window-height="1017"
     inkscape:window-x="-8"
     inkscape:window-y="-8"
     inkscape:window-maximized="1" />
  <metadata
     id="metadata5">
    <rdf:RDF>
      <cc:Work
         rdf:about="">
        <dc:format>image/svg+xml</dc:format>
        <dc:type
           rdf:resource="http://purl.org/dc/dcmitype/StillImage" />
        <dc:title></dc:title>
      </cc:Work>
    </rdf:RDF>
  </metadata>
  <g
     inkscape:label="Layer 1"
     inkscape:groupmode="layer"
     id="layer1">
    <path
       sodipodi:type="star"
       style="fill:#ffff00;stroke:#000000;stroke-width:0.47512022;stroke-linejoin:round;stroke-miterlimit:50.79999924;fill-opacity:1;stroke-opacity:1;stroke-dasharray:none"
       id="path841"
       sodipodi:sides="5"
       sodipodi:cx="49.229889"
       sodipodi:cy="51.505829"
       sodipodi:r1="46.505829"
       sodipodi:r2="25.620337"
       sodipodi:arg1="-1.5707963"
       sodipodi:arg2="-0.94247779"
       inkscape:flatsided="false"
       inkscape:rounded="-0.01"
       inkscape:randomized="0"
       d="m 49.22989,5 c -0.298549,0 15.300786,25.954024 15.059255,25.778541 -0.241531,-0.175482 29.262673,6.640134 29.170416,6.356198 -0.09226,-0.283937 -19.955541,22.572146 -19.863284,22.288209 0.09226,-0.283936 2.72752,29.88237 2.969051,29.706887 0.241531,-0.175482 -27.633988,-12.00367 -27.335439,-12.00367 0.298549,0 -27.576973,11.828186 -27.335441,12.003669 0.241531,0.175483 2.876796,-29.990823 2.969053,-29.706886 C 24.955758,59.706885 5.0924744,36.850799 5.0002177,37.134736 4.907961,37.418673 34.412164,30.603058 34.170633,30.778541 33.929102,30.954024 49.528439,5 49.22989,5 Z"
       inkscape:transform-center-x="0.3426531"
       inkscape:transform-center-y="-4.8901056"
       transform="matrix(1.0174116,0,0,1.0697654,-0.08705789,-0.34882675)" />
    <path
       sodipodi:type="star"
       style="fill:#ffe531;fill-opacity:0.526104;stroke:#ffd0ff;stroke-width:0;stroke-linejoin:round;stroke-miterlimit:50.8;stroke-opacity:1"
       id="path845"
       sodipodi:sides="5"
       sodipodi:cx="49.229889"
       sodipodi:cy="51.505829"
       sodipodi:r1="46.505829"
       sodipodi:r2="25.620337"
       sodipodi:arg1="-1.5707963"
       sodipodi:arg2="-0.94247779"
       inkscape:flatsided="false"
       inkscape:rounded="-0.01"
       inkscape:randomized="0"
       d="m 49.22989,5 c -0.298549,0 15.300786,25.954024 15.059255,25.778541 -0.241531,-0.175482 29.262673,6.640134 29.170416,6.356198 -0.09226,-0.283937 -19.955541,22.572146 -19.863284,22.288209 0.09226,-0.283936 2.72752,29.88237 2.969051,29.706887 0.241531,-0.175482 -27.633988,-12.00367 -27.335439,-12.00367 0.298549,0 -27.576973,11.828186 -27.335441,12.003669 0.241531,0.175483 2.876796,-29.990823 2.969053,-29.706886 C 24.955758,59.706885 5.0924744,36.850799 5.0002177,37.134736 4.907961,37.418673 34.412164,30.603058 34.170633,30.778541 33.929102,30.954024 49.528439,5 49.22989,5 Z"
       inkscape:transform-center-x="0.21738395"
       inkscape:transform-center-y="-2.9223481"
       transform="matrix(0.6454626,0,0,0.63929643,18.238138,22.383272)" />
    <path
       sodipodi:type="star"
       style="display:inline;fill:#ffdf00;fill-opacity:0.52610397;stroke:#ffffff;stroke-width:0;stroke-linejoin:round;stroke-miterlimit:50.8;stroke-dasharray:none;stroke-opacity:1"
       id="path853"
       sodipodi:sides="5"
       sodipodi:cx="49.229889"
       sodipodi:cy="51.505829"
       sodipodi:r1="46.505829"
       sodipodi:r2="25.620337"
       sodipodi:arg1="-1.5707963"
       sodipodi:arg2="-0.94247779"
       inkscape:flatsided="false"
       inkscape:rounded="-0.01"
       inkscape:randomized="0"
       d="m 49.22989,5 c -0.298549,0 15.300786,25.954024 15.059255,25.778541 -0.241531,-0.175482 29.262673,6.640134 29.170416,6.356198 -0.09226,-0.283937 -19.955541,22.572146 -19.863284,22.288209 0.09226,-0.283936 2.72752,29.88237 2.969051,29.706887 0.241531,-0.175482 -27.633988,-12.00367 -27.335439,-12.00367 0.298549,0 -27.576973,11.828186 -27.335441,12.003669 0.241531,0.175483 2.876796,-29.990823 2.969053,-29.706886 C 24.955758,59.706885 5.0924744,36.850799 5.0002177,37.134736 4.907961,37.418673 34.412164,30.603058 34.170633,30.778541 33.929102,30.954024 49.528439,5 49.22989,5 Z"
       inkscape:transform-center-x="0.28300837"
       inkscape:transform-center-y="-4.140513"
       transform="matrix(0.84031384,0,0,0.90578373,8.5800086,8.6228026)" />
    <path
       style="fill:#03ff04;fill-opacity:0.11245;stroke:#000000;stroke-width:1.00858;stroke-linecap:butt;stroke-linejoin:miter;stroke-miterlimit:4;stroke-dasharray:none;stroke-opacity:1"
       d="M 36.414012,79.10288 C 31.895433,73.560648 28.346975,67.27474 25.468097,60.729058 23.350383,55.914029 21.577155,50.916185 20.687081,45.731883 c -0.890074,-5.184302 -0.875229,-10.575294 0.53354,-15.643291 1.71001,-6.1517 5.495237,-11.702661 10.582116,-15.561576 5.086878,-3.858915 11.443792,-6.0072395 17.82859,-6.0509046 6.384798,-0.043665 12.762926,2.0133406 17.934276,5.7582956 5.17135,3.744956 9.111829,9.15533 11.114042,15.218225 1.833428,5.551798 2.051205,11.566808 1.097263,17.335162 -0.953943,5.768354 -3.050087,11.30548 -5.726782,16.503482 -3.257453,6.325805 -7.395374,12.206443 -12.331349,17.331183 -1.574716,1.634937 -3.242697,3.202974 -5.158511,4.420514 -1.915815,1.217541 -4.101814,2.076327 -6.369166,2.185263 -2.765566,0.132872 -5.502421,-0.861595 -7.807571,-2.395315 -2.30515,-1.533719 -4.219944,-3.584114 -5.969517,-5.730041 z"
       id="path1245"
       sodipodi:nodetypes="ssssssss"
       inkscape:original-d="M 36.414012,79.10288 C 31.777681,76.758103 30.598942,74.567786 25.468097,60.729058 20.33725,46.89033 20.726366,32.833658 21.220621,30.088592 c 0.494256,-2.745064 39.533138,-0.464167 57.459024,-0.63596 17.925885,-0.17179 -4.258372,23.660163 -4.629519,33.838644 -0.371144,10.178483 -6.273289,9.440055 -12.331349,17.331183 -6.058058,7.891128 -9.302103,5.57671 -11.527677,6.605777 -2.225574,1.029071 -9.140754,-5.780579 -13.777088,-8.125356 z"
       inkscape:path-effect="#path-effect1247" />
    <g
       id="g913"
       transform="matrix(1.3313194,0,0,1.4156105,-12.266676,-18.233039)">
      <path
         style="fill:#030104;stroke-width:3.79626"
         d="m 29.193513,39.163995 c -0.315089,0.102499 -0.508698,0.315089 -0.49731,0.736474 1.169247,7.357144 6.13475,13.423561 14.585216,11.867096 C 42.472817,43.677744 37.700923,39.55501 29.193513,39.163995 Z"
         id="path4" />
      <path
         style="fill:none;stroke:#000000;stroke-width:1.092;stroke-linecap:round;stroke-linejoin:miter;stroke-miterlimit:4;stroke-dasharray:none;stroke-opacity:1;paint-order:normal"
         d="m 35.250132,36.021731 c 3.297817,0.465345 6.355765,2.422466 8.159546,5.222201 0.723902,1.123602 1.252232,2.372834 1.554198,3.674883"
         id="path907"
         inkscape:path-effect="#path-effect909"
         inkscape:original-d="m 35.250132,36.021731 c 2.720031,1.741005 5.439879,3.481739 8.159546,5.222201 2.719666,1.740463 1.036313,2.450193 1.554198,3.674883" />
    </g>
    <path
       style="fill:none;stroke:#000000;stroke-width:1.765;stroke-linecap:round;stroke-linejoin:miter;stroke-miterlimit:4;stroke-dasharray:none;stroke-opacity:1"
       d="m 42.012052,71.021725 c 2.333197,1.436508 5.082543,2.188042 7.822046,2.138156 2.564507,-0.0467 5.112846,-0.79341 7.297002,-2.138156"
       id="path1257"
       inkscape:path-effect="#path-effect1259"
       inkscape:original-d="m 42.012052,71.021725 c 2.362616,2.65e-4 5.45996,2.138421 7.822046,2.138156 2.362086,-2.64e-4 4.619935,-2.137891 7.297002,-2.138156"
       sodipodi:nodetypes="csc" />
    <g
       id="g1267"
       transform="matrix(-1.3480525,0,0,1.404119,113.56099,-17.492509)">
      <path
         style="fill:#030104;stroke-width:3.79626"
         d="m 29.193513,39.163995 c -0.315089,0.102499 -0.508698,0.315089 -0.49731,0.736474 1.169247,7.357144 6.13475,13.423561 14.585216,11.867096 C 42.472817,43.677744 37.700923,39.55501 29.193513,39.163995 Z"
         id="path1263" />
      <path
         style="fill:none;stroke:#000000;stroke-width:1.092;stroke-linecap:round;stroke-linejoin:miter;stroke-miterlimit:4;stroke-dasharray:none;stroke-opacity:1;paint-order:normal"
         d="m 35.250132,36.021731 c 3.297817,0.465345 6.355765,2.422466 8.159546,5.222201 0.723902,1.123602 1.252232,2.372834 1.554198,3.674883"
         id="path1265"
         inkscape:path-effect="#path-effect1269"
         inkscape:original-d="m 35.250132,36.021731 c 2.720031,1.741005 5.439879,3.481739 8.159546,5.222201 2.719666,1.740463 1.036313,2.450193 1.554198,3.674883" />
    </g>
  </g>
</svg>
