<?xml version="1.0" encoding="UTF-8" standalone="no"?>
<svg
   xmlns:dc="http://purl.org/dc/elements/1.1/"
   xmlns:cc="http://creativecommons.org/ns#"
   xmlns:rdf="http://www.w3.org/1999/02/22-rdf-syntax-ns#"
   xmlns:svg="http://www.w3.org/2000/svg"
   xmlns="http://www.w3.org/2000/svg"
   xmlns:sodipodi="http://sodipodi.sourceforge.net/DTD/sodipodi-0.dtd"
   xmlns:inkscape="http://www.inkscape.org/namespaces/inkscape"
   width="100mm"
   height="100mm"
   viewBox="0 0 100 100"
   version="1.1"
   id="svg8"
   inkscape:version="1.0.1 (3bc2e813f5, 2020-09-07)"
   sodipodi:docname="cool-beard.svg">
  <defs
     id="defs2">
    <inkscape:path-effect
       effect="spiro"
       id="path-effect886"
       is_visible="true"
       lpeversion="1" />
  </defs>
  <sodipodi:namedview
     id="base"
     pagecolor="#ffffff"
     bordercolor="#666666"
     borderopacity="1.0"
     inkscape:pageopacity="0.0"
     inkscape:pageshadow="2"
     inkscape:zoom="1.4"
     inkscape:cx="-56.623497"
     inkscape:cy="293.59383"
     inkscape:document-units="mm"
     inkscape:current-layer="layer1"
     inkscape:document-rotation="0"
     showgrid="false"
     inkscape:window-width="1920"
     inkscape:window-height="1017"
     inkscape:window-x="-8"
     inkscape:window-y="-8"
     inkscape:window-maximized="1" />
  <metadata
     id="metadata5">
    <rdf:RDF>
      <cc:Work
         rdf:about="">
        <dc:format>image/svg+xml</dc:format>
        <dc:type
           rdf:resource="http://purl.org/dc/dcmitype/StillImage" />
        <dc:title />
      </cc:Work>
    </rdf:RDF>
  </metadata>
  <g
     inkscape:label="Layer 1"
     inkscape:groupmode="layer"
     id="layer1">
    <path
       sodipodi:type="star"
       style="fill:#ffff00;stroke:#000000;stroke-width:0.47512022;stroke-linejoin:round;stroke-miterlimit:50.79999924;fill-opacity:1;stroke-opacity:1;stroke-dasharray:none"
       id="path841"
       sodipodi:sides="5"
       sodipodi:cx="49.229889"
       sodipodi:cy="51.505829"
       sodipodi:r1="46.505829"
       sodipodi:r2="25.620337"
       sodipodi:arg1="-1.5707963"
       sodipodi:arg2="-0.94247779"
       inkscape:flatsided="false"
       inkscape:rounded="-0.01"
       inkscape:randomized="0"
       d="m 49.22989,5 c -0.298549,0 15.300786,25.954024 15.059255,25.778541 -0.241531,-0.175482 29.262673,6.640134 29.170416,6.356198 -0.09226,-0.283937 -19.955541,22.572146 -19.863284,22.288209 0.09226,-0.283936 2.72752,29.88237 2.969051,29.706887 0.241531,-0.175482 -27.633988,-12.00367 -27.335439,-12.00367 0.298549,0 -27.576973,11.828186 -27.335441,12.003669 0.241531,0.175483 2.876796,-29.990823 2.969053,-29.706886 C 24.955758,59.706885 5.0924744,36.850799 5.0002177,37.134736 4.907961,37.418673 34.412164,30.603058 34.170633,30.778541 33.929102,30.954024 49.528439,5 49.22989,5 Z"
       inkscape:transform-center-x="0.3426531"
       inkscape:transform-center-y="-4.8901056"
       transform="matrix(1.0174116,0,0,1.0697654,-0.08705789,-0.34882675)" />
    <path
       sodipodi:type="star"
       style="fill:#ffe531;fill-opacity:0.526104;stroke:#ffd0ff;stroke-width:0;stroke-linejoin:round;stroke-miterlimit:50.8;stroke-opacity:1"
       id="path845"
       sodipodi:sides="5"
       sodipodi:cx="49.229889"
       sodipodi:cy="51.505829"
       sodipodi:r1="46.505829"
       sodipodi:r2="25.620337"
       sodipodi:arg1="-1.5707963"
       sodipodi:arg2="-0.94247779"
       inkscape:flatsided="false"
       inkscape:rounded="-0.01"
       inkscape:randomized="0"
       d="m 49.22989,5 c -0.298549,0 15.300786,25.954024 15.059255,25.778541 -0.241531,-0.175482 29.262673,6.640134 29.170416,6.356198 -0.09226,-0.283937 -19.955541,22.572146 -19.863284,22.288209 0.09226,-0.283936 2.72752,29.88237 2.969051,29.706887 0.241531,-0.175482 -27.633988,-12.00367 -27.335439,-12.00367 0.298549,0 -27.576973,11.828186 -27.335441,12.003669 0.241531,0.175483 2.876796,-29.990823 2.969053,-29.706886 C 24.955758,59.706885 5.0924744,36.850799 5.0002177,37.134736 4.907961,37.418673 34.412164,30.603058 34.170633,30.778541 33.929102,30.954024 49.528439,5 49.22989,5 Z"
       inkscape:transform-center-x="0.21738395"
       inkscape:transform-center-y="-2.9223481"
       transform="matrix(0.6454626,0,0,0.63929643,18.238138,22.383272)" />
    <path
       sodipodi:type="star"
       style="display:inline;fill:#ffdf00;fill-opacity:0.52610397;stroke:#ffffff;stroke-width:0;stroke-linejoin:round;stroke-miterlimit:50.8;stroke-dasharray:none;stroke-opacity:1"
       id="path853"
       sodipodi:sides="5"
       sodipodi:cx="49.229889"
       sodipodi:cy="51.505829"
       sodipodi:r1="46.505829"
       sodipodi:r2="25.620337"
       sodipodi:arg1="-1.5707963"
       sodipodi:arg2="-0.94247779"
       inkscape:flatsided="false"
       inkscape:rounded="-0.01"
       inkscape:randomized="0"
       d="m 49.22989,5 c -0.298549,0 15.300786,25.954024 15.059255,25.778541 -0.241531,-0.175482 29.262673,6.640134 29.170416,6.356198 -0.09226,-0.283937 -19.955541,22.572146 -19.863284,22.288209 0.09226,-0.283936 2.72752,29.88237 2.969051,29.706887 0.241531,-0.175482 -27.633988,-12.00367 -27.335439,-12.00367 0.298549,0 -27.576973,11.828186 -27.335441,12.003669 0.241531,0.175483 2.876796,-29.990823 2.969053,-29.706886 C 24.955758,59.706885 5.0924744,36.850799 5.0002177,37.134736 4.907961,37.418673 34.412164,30.603058 34.170633,30.778541 33.929102,30.954024 49.528439,5 49.22989,5 Z"
       inkscape:transform-center-x="0.28300837"
       inkscape:transform-center-y="-4.140513"
       transform="matrix(0.84031384,0,0,0.90578373,8.5800086,8.6228026)" />
    <g
       transform="matrix(0.00390663,0,0,-0.00390663,25.5,57.567656)"
       fill="#000000"
       stroke="none"
       id="g922">
      <path
         d="m 2910,5554 c -201,-13 -369,-28 -460,-40 C 1552,5391 918,5059 592,4539 495,4385 406,4162 351,3935 l -27,-110 -138,-5 C 50,3815 48,3815 24,3787 1,3760 0,3755 0,3580 v -180 l 29,-32 c 29,-32 31,-33 129,-36 l 99,-4 7,-171 c 22,-583 197,-1075 522,-1467 92,-111 306,-316 414,-397 236,-177 456,-289 715,-364 1023,-298 2088,181 3105,1396 637,761 917,1470 803,2037 -5,26 -2,30 48,52 123,54 263,79 439,79 197,-1 393,-48 510,-123 73,-47 71,-43 59,-165 -29,-285 59,-652 243,-1020 313,-623 983,-1389 1598,-1825 586,-415 1204,-585 1800,-495 475,71 891,287 1255,650 195,194 322,370 435,600 156,319 234,641 247,1027 l 6,187 139,3 140,3 29,33 29,32 v 181 181 l -29,29 -29,29 h -171 -170 l -10,38 c -5,20 -17,66 -25,102 -25,113 -94,310 -146,417 -208,437 -566,739 -1121,946 -285,107 -614,174 -1074,218 -170,17 -779,17 -950,1 -327,-32 -561,-65 -762,-108 l -113,-24 H 6362 c -1806,0 -1840,0 -1933,20 -209,45 -491,85 -769,110 -118,11 -651,21 -750,14 z m 4570,-402 c -242,-166 -404,-344 -495,-542 -16,-36 -30,-67 -32,-69 -1,-2 -37,14 -80,36 -140,72 -272,107 -458,122 -216,17 -458,-19 -627,-93 l -36,-16 -41,74 c -91,166 -242,331 -400,437 -44,30 -80,57 -81,62 0,4 512,7 1138,6 1073,0 1136,-1 1112,-17 z"
         id="path920" />
    </g>
    <g
       id="g850"
       style="fill:#000000;fill-opacity:1;stroke:#000000;stroke-width:4.12349;stroke-miterlimit:50.8;stroke-dasharray:none;stroke-opacity:1"
       transform="matrix(0.0981821,0,0,0.09584243,42.995574,44.079982)">
      <path
         d="m 46.6,11.2 c -0.3,1.3 -1.5,12.2 -2.6,24.3 -3.4,37.7 -6.4,55 -12,70.4 -4,10.9 -5.7,14 -14.4,27.1 -8.3,12.2 -11.5,19.7 -12.3,28.1 -1.4,15.2 9.5,25 27.5,24.8 l 7.7,-0.1 -5,-1.2 C 24.1,181.9 14.6,174.8 13.4,168.3 11.8,159.9 13.3,155 21.5,140.4 33.1,119.9 35.5,114.6 38.8,103 42.9,88.7 44.8,79 46.5,62.5 47.8,50 48.7,10.4 47.7,9.3 47.4,9.1 47,10 46.6,11.2 Z"
         id="node2"
         class="node"
         style="fill:#000000;fill-opacity:1;stroke:#000000;stroke-width:4.12349;stroke-miterlimit:50.8;stroke-dasharray:none;stroke-opacity:1" />
      <path
         d="m 102.5,33 c 0.9,45.4 6.5,71.9 20.4,96.5 11.3,19.8 13.9,25.2 14.6,29.8 0.8,5.5 -0.8,11.7 -4.1,15.6 -2.9,3.5 -11.3,7.9 -18.7,9.7 l -5.2,1.4 9.5,-0.3 c 8.3,-0.3 10.2,-0.6 14.9,-3.2 3.7,-2 6.4,-4.5 8.4,-7.5 2.7,-4.2 2.8,-5 2.5,-13 -0.4,-7.5 -0.9,-9.5 -4.2,-16 -2,-4.1 -6.1,-10.8 -9,-15 C 120.2,114.7 114.8,99.8 110.6,72.5 109,62.1 105,24.1 105,18 104.9,16.1 104.3,13.1 103.4,11.5 102.1,8.8 102,11 102.5,33 Z"
         id="node3"
         class="node"
         style="fill:#000000;fill-opacity:1;stroke:#000000;stroke-width:4.12349;stroke-miterlimit:50.8;stroke-dasharray:none;stroke-opacity:1" />
      <path
         d="m 25.1,170.6 c -4,3.3 -3.9,4.4 0.2,4.4 5.6,0 13.7,2.9 23.8,8.6 15,8.3 18.5,9.7 26.1,9.8 6.5,0 7.3,-0.3 24,-8.7 13.7,-7 18.5,-8.9 23.1,-9.4 3.1,-0.3 5.7,-0.9 5.7,-1.4 0,-0.4 -1.4,-1.9 -3.1,-3.3 -2.3,-2 -4.1,-2.6 -7.7,-2.6 -6.5,0.1 -11.4,2.6 -20.9,10.8 C 85.7,188 83,189.3 75.5,189.4 67.8,189.4 64,187.5 54.8,179.3 45.5,171.1 39.6,168 33.1,168 c -3.9,0 -5.6,0.6 -8,2.6 z"
         id="node5"
         class="node"
         style="fill:#000000;fill-opacity:1;stroke:#000000;stroke-width:4.12349;stroke-miterlimit:50.8;stroke-dasharray:none;stroke-opacity:1" />
    </g>
    <g
       id="g6"
       transform="matrix(0.39073259,0,0,0.35029497,26.373,57.215)">
      <path
         class="st0"
         d="M 25.29,38.29 C 24.52,40.11 23.93,42 23.5,43.95 8.06,25.12 9.91,29.85 8.21,5.56 L 0,0 c 0.28,32.54 3.89,81.46 47.72,87.32 3.66,0.49 8.32,0.25 13.92,-0.68 28.17,7.05 57.66,-28.25 59.99,-53.17 1.11,-11.11 1.58,-22.23 1.01,-33.34 l -7.96,5.68 C 113.22,29.53 114.56,24.94 99.9,43.7 95.46,26.11 65.45,19.95 61.81,26.55 55.97,18.96 29.19,29.09 25.29,38.29 Z m 11.56,11.62 c 0.58,-3.92 2.29,-6.46 3.95,-8.89 3.21,-4.69 5.24,-4.38 9.92,-3.65 8.36,1.31 16.67,1.04 24.91,-0.75 5.38,-0.08 10.9,9.34 10.35,13.71 -0.52,4.12 -8.42,9.05 -12.64,9.02 C 69.57,59.33 65.6,57.3 61.43,53.2 52.99,61.87 44.34,60.92 36.85,49.91 Z"
         id="path4" />
    </g>
  </g>
</svg>
