<?xml version="1.0" encoding="UTF-8" standalone="no"?>
<svg
   xmlns:dc="http://purl.org/dc/elements/1.1/"
   xmlns:cc="http://creativecommons.org/ns#"
   xmlns:rdf="http://www.w3.org/1999/02/22-rdf-syntax-ns#"
   xmlns:svg="http://www.w3.org/2000/svg"
   xmlns="http://www.w3.org/2000/svg"
   xmlns:sodipodi="http://sodipodi.sourceforge.net/DTD/sodipodi-0.dtd"
   xmlns:inkscape="http://www.inkscape.org/namespaces/inkscape"
   width="100mm"
   height="100mm"
   viewBox="0 0 100 100"
   version="1.1"
   id="svg8"
   inkscape:version="1.0.1 (3bc2e813f5, 2020-09-07)"
   sodipodi:docname="cool.svg"
   class="star">
  <defs
     id="defs2">
    <inkscape:path-effect
       effect="spiro"
       id="path-effect886"
       is_visible="true"
       lpeversion="1" />
  </defs>
  <sodipodi:namedview
     id="base"
     pagecolor="#ffffff"
     bordercolor="#666666"
     borderopacity="1.0"
     inkscape:pageopacity="0.0"
     inkscape:pageshadow="2"
     inkscape:zoom="3.959798"
     inkscape:cx="179.01413"
     inkscape:cy="189.43551"
     inkscape:document-units="mm"
     inkscape:current-layer="layer1"
     inkscape:document-rotation="0"
     showgrid="false"
     inkscape:window-width="1920"
     inkscape:window-height="1017"
     inkscape:window-x="-8"
     inkscape:window-y="-8"
     inkscape:window-maximized="1" />
  <metadata
     id="metadata5">
    <rdf:RDF>
      <cc:Work
         rdf:about="">
        <dc:format>image/svg+xml</dc:format>
        <dc:type
           rdf:resource="http://purl.org/dc/dcmitype/StillImage" />
        <dc:title />
      </cc:Work>
    </rdf:RDF>
  </metadata>
  <g
     inkscape:label="Layer 1"
     inkscape:groupmode="layer"
     id="layer1">
    <path
       sodipodi:type="star"
       style="fill:#ffff00;stroke:#000000;stroke-width:0.47512022;stroke-linejoin:round;stroke-miterlimit:50.79999924;fill-opacity:1;stroke-opacity:1;stroke-dasharray:none"
       id="path841"
       sodipodi:sides="5"
       sodipodi:cx="49.229889"
       sodipodi:cy="51.505829"
       sodipodi:r1="46.505829"
       sodipodi:r2="25.620337"
       sodipodi:arg1="-1.5707963"
       sodipodi:arg2="-0.94247779"
       inkscape:flatsided="false"
       inkscape:rounded="-0.01"
       inkscape:randomized="0"
       d="m 49.22989,5 c -0.298549,0 15.300786,25.954024 15.059255,25.778541 -0.241531,-0.175482 29.262673,6.640134 29.170416,6.356198 -0.09226,-0.283937 -19.955541,22.572146 -19.863284,22.288209 0.09226,-0.283936 2.72752,29.88237 2.969051,29.706887 0.241531,-0.175482 -27.633988,-12.00367 -27.335439,-12.00367 0.298549,0 -27.576973,11.828186 -27.335441,12.003669 0.241531,0.175483 2.876796,-29.990823 2.969053,-29.706886 C 24.955758,59.706885 5.0924744,36.850799 5.0002177,37.134736 4.907961,37.418673 34.412164,30.603058 34.170633,30.778541 33.929102,30.954024 49.528439,5 49.22989,5 Z"
       inkscape:transform-center-x="0.3426531"
       inkscape:transform-center-y="-4.8901056"
       transform="matrix(1.0174116,0,0,1.0697654,-0.08705789,-0.34882675)" />
    <path
       sodipodi:type="star"
       style="fill:#ffe531;fill-opacity:0.526104;stroke:#ffd0ff;stroke-width:0;stroke-linejoin:round;stroke-miterlimit:50.8;stroke-opacity:1"
       id="path845"
       sodipodi:sides="5"
       sodipodi:cx="49.229889"
       sodipodi:cy="51.505829"
       sodipodi:r1="46.505829"
       sodipodi:r2="25.620337"
       sodipodi:arg1="-1.5707963"
       sodipodi:arg2="-0.94247779"
       inkscape:flatsided="false"
       inkscape:rounded="-0.01"
       inkscape:randomized="0"
       d="m 49.22989,5 c -0.298549,0 15.300786,25.954024 15.059255,25.778541 -0.241531,-0.175482 29.262673,6.640134 29.170416,6.356198 -0.09226,-0.283937 -19.955541,22.572146 -19.863284,22.288209 0.09226,-0.283936 2.72752,29.88237 2.969051,29.706887 0.241531,-0.175482 -27.633988,-12.00367 -27.335439,-12.00367 0.298549,0 -27.576973,11.828186 -27.335441,12.003669 0.241531,0.175483 2.876796,-29.990823 2.969053,-29.706886 C 24.955758,59.706885 5.0924744,36.850799 5.0002177,37.134736 4.907961,37.418673 34.412164,30.603058 34.170633,30.778541 33.929102,30.954024 49.528439,5 49.22989,5 Z"
       inkscape:transform-center-x="0.21738395"
       inkscape:transform-center-y="-2.9223481"
       transform="matrix(0.6454626,0,0,0.63929643,18.238138,22.383272)" />
    <path
       sodipodi:type="star"
       style="display:inline;fill:#ffdf00;fill-opacity:0.52610397;stroke:#ffffff;stroke-width:0;stroke-linejoin:round;stroke-miterlimit:50.8;stroke-dasharray:none;stroke-opacity:1"
       id="path853"
       sodipodi:sides="5"
       sodipodi:cx="49.229889"
       sodipodi:cy="51.505829"
       sodipodi:r1="46.505829"
       sodipodi:r2="25.620337"
       sodipodi:arg1="-1.5707963"
       sodipodi:arg2="-0.94247779"
       inkscape:flatsided="false"
       inkscape:rounded="-0.01"
       inkscape:randomized="0"
       d="m 49.22989,5 c -0.298549,0 15.300786,25.954024 15.059255,25.778541 -0.241531,-0.175482 29.262673,6.640134 29.170416,6.356198 -0.09226,-0.283937 -19.955541,22.572146 -19.863284,22.288209 0.09226,-0.283936 2.72752,29.88237 2.969051,29.706887 0.241531,-0.175482 -27.633988,-12.00367 -27.335439,-12.00367 0.298549,0 -27.576973,11.828186 -27.335441,12.003669 0.241531,0.175483 2.876796,-29.990823 2.969053,-29.706886 C 24.955758,59.706885 5.0924744,36.850799 5.0002177,37.134736 4.907961,37.418673 34.412164,30.603058 34.170633,30.778541 33.929102,30.954024 49.528439,5 49.22989,5 Z"
       inkscape:transform-center-x="0.28300837"
       inkscape:transform-center-y="-4.140513"
       transform="matrix(0.84031384,0,0,0.90578373,8.5800086,8.6228026)" />
    <g
       transform="matrix(0.00390663,0,0,-0.00390663,25.875168,57.567656)"
       fill="#000000"
       stroke="none"
       id="g922">
      <path
         d="m 2910,5554 c -201,-13 -369,-28 -460,-40 C 1552,5391 918,5059 592,4539 495,4385 406,4162 351,3935 l -27,-110 -138,-5 C 50,3815 48,3815 24,3787 1,3760 0,3755 0,3580 v -180 l 29,-32 c 29,-32 31,-33 129,-36 l 99,-4 7,-171 c 22,-583 197,-1075 522,-1467 92,-111 306,-316 414,-397 236,-177 456,-289 715,-364 1023,-298 2088,181 3105,1396 637,761 917,1470 803,2037 -5,26 -2,30 48,52 123,54 263,79 439,79 197,-1 393,-48 510,-123 73,-47 71,-43 59,-165 -29,-285 59,-652 243,-1020 313,-623 983,-1389 1598,-1825 586,-415 1204,-585 1800,-495 475,71 891,287 1255,650 195,194 322,370 435,600 156,319 234,641 247,1027 l 6,187 139,3 140,3 29,33 29,32 v 181 181 l -29,29 -29,29 h -171 -170 l -10,38 c -5,20 -17,66 -25,102 -25,113 -94,310 -146,417 -208,437 -566,739 -1121,946 -285,107 -614,174 -1074,218 -170,17 -779,17 -950,1 -327,-32 -561,-65 -762,-108 l -113,-24 H 6362 c -1806,0 -1840,0 -1933,20 -209,45 -491,85 -769,110 -118,11 -651,21 -750,14 z m 4570,-402 c -242,-166 -404,-344 -495,-542 -16,-36 -30,-67 -32,-69 -1,-2 -37,14 -80,36 -140,72 -272,107 -458,122 -216,17 -458,-19 -627,-93 l -36,-16 -41,74 c -91,166 -242,331 -400,437 -44,30 -80,57 -81,62 0,4 512,7 1138,6 1073,0 1136,-1 1112,-17 z"
         id="path920" />
    </g>
  </g>
</svg>
