<?xml version="1.0" encoding="UTF-8" standalone="no"?>
<svg
   xmlns:dc="http://purl.org/dc/elements/1.1/"
   xmlns:cc="http://creativecommons.org/ns#"
   xmlns:rdf="http://www.w3.org/1999/02/22-rdf-syntax-ns#"
   xmlns:svg="http://www.w3.org/2000/svg"
   xmlns="http://www.w3.org/2000/svg"
   xmlns:sodipodi="http://sodipodi.sourceforge.net/DTD/sodipodi-0.dtd"
   xmlns:inkscape="http://www.inkscape.org/namespaces/inkscape"
   width="100mm"
   height="100mm"
   viewBox="0 0 100 100"
   version="1.1"
   id="svg8"
   inkscape:version="1.0.1 (3bc2e813f5, 2020-09-07)"
   sodipodi:docname="duck.svg">
  <defs
     id="defs2">
    <inkscape:path-effect
       effect="spiro"
       id="path-effect884"
       is_visible="true"
       lpeversion="1" />
    <inkscape:path-effect
       effect="spiro"
       id="path-effect867"
       is_visible="true"
       lpeversion="1" />
    <inkscape:path-effect
       effect="spiro"
       id="path-effect863"
       is_visible="true"
       lpeversion="1" />
    <inkscape:path-effect
       effect="spiro"
       id="path-effect912" />
    <inkscape:path-effect
       effect="spiro"
       id="path-effect908"
       is_visible="true"
       lpeversion="1" />
    <inkscape:path-effect
       effect="spiro"
       id="path-effect904"
       is_visible="true"
       lpeversion="1" />
    <inkscape:path-effect
       effect="spiro"
       id="path-effect1140"
       is_visible="true"
       lpeversion="1" />
    <inkscape:path-effect
       effect="spiro"
       id="path-effect1071"
       is_visible="true"
       lpeversion="1" />
    <inkscape:path-effect
       effect="spiro"
       id="path-effect1063"
       is_visible="true"
       lpeversion="1" />
    <inkscape:path-effect
       effect="spiro"
       id="path-effect1055"
       is_visible="true"
       lpeversion="1" />
    <inkscape:path-effect
       effect="spiro"
       id="path-effect1051"
       is_visible="true"
       lpeversion="1" />
    <inkscape:path-effect
       effect="spiro"
       id="path-effect1019"
       is_visible="true"
       lpeversion="1" />
    <inkscape:path-effect
       effect="spiro"
       id="path-effect920"
       is_visible="true"
       lpeversion="1" />
    <inkscape:path-effect
       effect="spiro"
       id="path-effect918"
       is_visible="true"
       lpeversion="1" />
    <inkscape:path-effect
       effect="spiro"
       id="path-effect906"
       is_visible="true"
       lpeversion="1" />
    <inkscape:path-effect
       effect="spiro"
       id="path-effect887"
       is_visible="true"
       lpeversion="1" />
    <inkscape:path-effect
       effect="spiro"
       id="path-effect883"
       is_visible="true"
       lpeversion="1" />
    <inkscape:path-effect
       effect="spiro"
       id="path-effect864"
       is_visible="true"
       lpeversion="1" />
    <inkscape:path-effect
       effect="spiro"
       id="path-effect886"
       is_visible="true"
       lpeversion="1" />
  </defs>
  <sodipodi:namedview
     id="base"
     pagecolor="#ffffff"
     bordercolor="#666666"
     borderopacity="1.0"
     inkscape:pageopacity="0.0"
     inkscape:pageshadow="2"
     inkscape:zoom="1.4"
     inkscape:cx="12.307642"
     inkscape:cy="214.82667"
     inkscape:document-units="mm"
     inkscape:current-layer="layer1"
     inkscape:document-rotation="0"
     showgrid="false"
     inkscape:window-width="1920"
     inkscape:window-height="1017"
     inkscape:window-x="-8"
     inkscape:window-y="-8"
     inkscape:window-maximized="1" />
  <metadata
     id="metadata5">
    <rdf:RDF>
      <cc:Work
         rdf:about="">
        <dc:format>image/svg+xml</dc:format>
        <dc:type
           rdf:resource="http://purl.org/dc/dcmitype/StillImage" />
        <dc:title />
      </cc:Work>
    </rdf:RDF>
  </metadata>
  <g
     inkscape:label="Layer 1"
     inkscape:groupmode="layer"
     id="layer1">
    <path
       sodipodi:type="star"
       style="fill:#ffff00;stroke:#000000;stroke-width:0.47512022;stroke-linejoin:round;stroke-miterlimit:50.79999924;fill-opacity:1;stroke-opacity:1;stroke-dasharray:none"
       id="path841"
       sodipodi:sides="5"
       sodipodi:cx="49.229889"
       sodipodi:cy="51.505829"
       sodipodi:r1="46.505829"
       sodipodi:r2="25.620337"
       sodipodi:arg1="-1.5707963"
       sodipodi:arg2="-0.94247779"
       inkscape:flatsided="false"
       inkscape:rounded="-0.01"
       inkscape:randomized="0"
       d="m 49.22989,5 c -0.298549,0 15.300786,25.954024 15.059255,25.778541 -0.241531,-0.175482 29.262673,6.640134 29.170416,6.356198 -0.09226,-0.283937 -19.955541,22.572146 -19.863284,22.288209 0.09226,-0.283936 2.72752,29.88237 2.969051,29.706887 0.241531,-0.175482 -27.633988,-12.00367 -27.335439,-12.00367 0.298549,0 -27.576973,11.828186 -27.335441,12.003669 0.241531,0.175483 2.876796,-29.990823 2.969053,-29.706886 C 24.955758,59.706885 5.0924744,36.850799 5.0002177,37.134736 4.907961,37.418673 34.412164,30.603058 34.170633,30.778541 33.929102,30.954024 49.528439,5 49.22989,5 Z"
       inkscape:transform-center-x="0.3426531"
       inkscape:transform-center-y="-4.8901056"
       transform="matrix(1.0174116,0,0,1.0697654,-0.08705789,-0.34882675)" />
    <path
       sodipodi:type="star"
       style="fill:#ffe531;fill-opacity:0.526104;stroke:#ffd0ff;stroke-width:0;stroke-linejoin:round;stroke-miterlimit:50.8;stroke-opacity:1"
       id="path845"
       sodipodi:sides="5"
       sodipodi:cx="49.229889"
       sodipodi:cy="51.505829"
       sodipodi:r1="46.505829"
       sodipodi:r2="25.620337"
       sodipodi:arg1="-1.5707963"
       sodipodi:arg2="-0.94247779"
       inkscape:flatsided="false"
       inkscape:rounded="-0.01"
       inkscape:randomized="0"
       d="m 49.22989,5 c -0.298549,0 15.300786,25.954024 15.059255,25.778541 -0.241531,-0.175482 29.262673,6.640134 29.170416,6.356198 -0.09226,-0.283937 -19.955541,22.572146 -19.863284,22.288209 0.09226,-0.283936 2.72752,29.88237 2.969051,29.706887 0.241531,-0.175482 -27.633988,-12.00367 -27.335439,-12.00367 0.298549,0 -27.576973,11.828186 -27.335441,12.003669 0.241531,0.175483 2.876796,-29.990823 2.969053,-29.706886 C 24.955758,59.706885 5.0924744,36.850799 5.0002177,37.134736 4.907961,37.418673 34.412164,30.603058 34.170633,30.778541 33.929102,30.954024 49.528439,5 49.22989,5 Z"
       inkscape:transform-center-x="0.21738395"
       inkscape:transform-center-y="-2.9223481"
       transform="matrix(0.6454626,0,0,0.63929643,18.238138,22.383272)" />
    <path
       sodipodi:type="star"
       style="display:inline;fill:#ffdf00;fill-opacity:0.52610397;stroke:#ffffff;stroke-width:0;stroke-linejoin:round;stroke-miterlimit:50.8;stroke-dasharray:none;stroke-opacity:1"
       id="path853"
       sodipodi:sides="5"
       sodipodi:cx="49.229889"
       sodipodi:cy="51.505829"
       sodipodi:r1="46.505829"
       sodipodi:r2="25.620337"
       sodipodi:arg1="-1.5707963"
       sodipodi:arg2="-0.94247779"
       inkscape:flatsided="false"
       inkscape:rounded="-0.01"
       inkscape:randomized="0"
       d="m 49.22989,5 c -0.298549,0 15.300786,25.954024 15.059255,25.778541 -0.241531,-0.175482 29.262673,6.640134 29.170416,6.356198 -0.09226,-0.283937 -19.955541,22.572146 -19.863284,22.288209 0.09226,-0.283936 2.72752,29.88237 2.969051,29.706887 0.241531,-0.175482 -27.633988,-12.00367 -27.335439,-12.00367 0.298549,0 -27.576973,11.828186 -27.335441,12.003669 0.241531,0.175483 2.876796,-29.990823 2.969053,-29.706886 C 24.955758,59.706885 5.0924744,36.850799 5.0002177,37.134736 4.907961,37.418673 34.412164,30.603058 34.170633,30.778541 33.929102,30.954024 49.528439,5 49.22989,5 Z"
       inkscape:transform-center-x="0.28300837"
       inkscape:transform-center-y="-4.140513"
       transform="matrix(0.84031384,0,0,0.90578373,8.5800086,8.6228026)" />
    <circle
       style="fill:#000000;fill-opacity:1;stroke:#fffc00;stroke-width:0;stroke-linejoin:round;stroke-miterlimit:50.8"
       id="path1113"
       cx="41.159504"
       cy="46.504898"
       rx="4.1426778"
       ry="9.3544331" />
    <g
       id="g874"
       transform="matrix(1.171103,0,0,1.3563968,-26.531928,-18.140108)">
      <ellipse
         style="fill:#ffffff;fill-opacity:1;stroke-width:0.88442;stroke-linecap:round;stroke-linejoin:round;stroke-miterlimit:4;stroke-dasharray:none"
         id="ellipse868"
         cx="58.362587"
         cy="46.126167"
         rx="4.6942439"
         ry="7.0922823" />
      <ellipse
         style="fill:#000000;fill-opacity:1;stroke-width:1.47111;stroke-linecap:round;stroke-linejoin:round;stroke-miterlimit:4;stroke-dasharray:none"
         id="ellipse870"
         cx="58.258968"
         cy="45.529076"
         rx="3.0013809"
         ry="4.3695669" />
      <ellipse
         style="fill:#ffffff;fill-opacity:1;stroke-width:1.35422;stroke-linecap:round;stroke-linejoin:round;stroke-miterlimit:4;stroke-dasharray:none"
         id="ellipse872"
         cx="58.231991"
         cy="43.73814"
         rx="1.5375916"
         ry="1.3275453" />
    </g>
    <path
       style="fill:#ff2c00;fill-opacity:0.52610397;stroke:#000000;stroke-width:0.388;stroke-linecap:butt;stroke-linejoin:miter;stroke-opacity:1;stroke-miterlimit:4;stroke-dasharray:none"
       d="m 63.751791,66.083374 c 0.131892,-0.24812 0.14461,-0.540177 0.152415,-0.821066 0.0081,-0.290421 0.01395,-0.580956 0.01121,-0.871477 -0.0016,-0.1668 -0.0061,-0.334603 -0.03921,-0.498093 -0.03311,-0.163489 -0.09639,-0.323774 -0.204201,-0.451062 -0.115007,-0.135787 -0.274865,-0.227354 -0.441791,-0.289001 -0.166927,-0.06165 -0.342491,-0.09568 -0.51625,-0.134056 -1.946416,-0.429836 -3.730685,-1.426115 -5.314346,-2.636615 -1.34714,-1.02971 -2.588239,-2.232606 -4.113559,-2.973206 -1.117649,-0.542661 -2.364229,-0.817486 -3.606452,-0.795091 -1.126335,-0.0095 -2.253962,0.26479 -3.250075,0.790604 -1.891181,0.998289 -3.206658,2.814651 -4.939493,4.067819 -1.223056,0.884501 -2.64489,1.477082 -4.117108,1.809922 -0.253383,0.05729 -0.510483,0.107707 -0.749187,0.2102 -0.238705,0.102493 -0.461599,0.263711 -0.585519,0.492027 -0.09711,0.178917 -0.127435,0.387116 -0.128406,0.590685 -0.0023,0.476112 0.145986,0.939189 0.308183,1.386827 0.07863,0.217012 0.163207,0.436762 0.308185,0.616369 0.223772,0.277222 0.588611,0.434085 0.94375,0.405766 3.808774,-0.807237 7.698924,-1.230011 11.592188,-1.259816 1.0662,-0.0082 2.13247,0.01305 3.198066,0.04986 3.455954,0.119379 6.906233,0.40292 10.335311,0.849347 0.297791,0.01763 0.608359,-0.03895 0.855612,-0.205852 0.125423,-0.08466 0.229649,-0.200473 0.300676,-0.334091 z"
       id="path861"
       inkscape:path-effect="#path-effect863"
       inkscape:original-d="m 63.751791,66.083374 c 0.228228,-0.253591 0.04995,-0.615576 0.152415,-0.821066 0.102451,-0.205488 -0.0913,-0.409483 0.01121,-0.871477 0.102452,-0.461991 -0.209654,-0.658165 -0.24341,-0.949155 -0.03378,-0.290991 -0.65182,-0.234666 -0.958041,-0.423057 -0.306218,-0.188389 -3.805248,-2.082131 -5.314346,-2.636615 -1.509097,-0.554486 -2.476315,-1.618651 -4.113559,-2.973206 -1.637246,-1.354553 -2.479601,-0.360541 -3.606452,-0.795091 -1.133019,0.435087 -1.603865,-0.565622 -3.250075,0.790604 -1.646209,1.356227 -3.422133,3.512649 -4.939493,4.067819 -1.517361,0.555168 -3.809211,1.621301 -4.117108,1.809922 -0.307896,0.188625 -1.300755,0.410876 -1.334706,0.702227 -0.03395,0.29135 -0.231424,0.128123 -0.128406,0.590685 0.103017,0.462565 0.205166,1.181085 0.308183,1.386827 0.103017,0.205744 -0.0067,0.480825 0.308185,0.616369 0.314872,0.135543 0.629455,0.270799 0.94375,0.405766 1.40392,-0.226448 10.188844,-1.032792 11.592188,-1.259816 1.403344,-0.227027 -4.129572,0.18711 3.198066,0.04986 7.327638,-0.137258 9.13974,0.534355 10.335311,0.849347 0.31258,-0.134798 0.627386,0.04774 0.855612,-0.205852 z"
       sodipodi:nodetypes="ssscssscssssssscsscss" />
    <path
       style="fill:#ff2c00;fill-opacity:0.52610397;stroke:#000000;stroke-width:0.383;stroke-linecap:butt;stroke-linejoin:miter;stroke-miterlimit:4;stroke-dasharray:none;stroke-opacity:1"
       d="m 54.74677,65.903144 c -3.365858,-0.191069 -6.744979,-0.247482 -10.10616,0.01322 -1.835142,0.142339 -3.662955,0.379121 -5.47379,0.709097 4.274573,2.887678 9.773017,3.89446 14.793445,2.708727 2.35042,-0.555126 4.591309,-1.570124 6.558763,-2.970754 -1.920242,-0.197402 -3.844999,-0.350886 -5.772258,-0.46029 z"
       id="path881"
       inkscape:path-effect="#path-effect884"
       inkscape:original-d="m 54.74677,65.903144 c -2.69984,-0.125184 -7.733971,-0.300479 -10.10616,0.01322 -2.372193,0.313698 -3.101023,0.395973 -5.47379,0.709097 2.945157,0.959082 11.848864,1.750219 14.793445,2.708727 2.944577,0.958505 5.226858,0.740323 6.558763,-2.970754 -1.839053,-0.177355 -2.86968,-0.325706 -5.772258,-0.46029 z"
       sodipodi:nodetypes="sscscss" />
    <g
       id="g869"
       transform="matrix(1.171103,0,0,1.3563968,-10.127751,-18.140108)">
      <ellipse
         style="fill:#ffffff;fill-opacity:1;stroke-width:0.88442;stroke-linecap:round;stroke-linejoin:round;stroke-miterlimit:4;stroke-dasharray:none"
         id="ellipse863"
         cx="58.362587"
         cy="46.126167"
         rx="4.6942439"
         ry="7.0922823" />
      <ellipse
         style="fill:#000000;fill-opacity:1;stroke-width:1.47111;stroke-linecap:round;stroke-linejoin:round;stroke-miterlimit:4;stroke-dasharray:none"
         id="ellipse865"
         cx="58.258968"
         cy="45.529076"
         rx="3.0013809"
         ry="4.3695669" />
      <ellipse
         style="fill:#ffffff;fill-opacity:1;stroke-width:1.35422;stroke-linecap:round;stroke-linejoin:round;stroke-miterlimit:4;stroke-dasharray:none"
         id="ellipse867"
         cx="58.231991"
         cy="43.73814"
         rx="1.5375916"
         ry="1.3275453" />
    </g>
  </g>
</svg>
