<?xml version="1.0" encoding="UTF-8" standalone="no"?>
<svg
   xmlns:dc="http://purl.org/dc/elements/1.1/"
   xmlns:cc="http://creativecommons.org/ns#"
   xmlns:rdf="http://www.w3.org/1999/02/22-rdf-syntax-ns#"
   xmlns:svg="http://www.w3.org/2000/svg"
   xmlns="http://www.w3.org/2000/svg"
   xmlns:sodipodi="http://sodipodi.sourceforge.net/DTD/sodipodi-0.dtd"
   xmlns:inkscape="http://www.inkscape.org/namespaces/inkscape"
   width="100mm"
   height="100mm"
   viewBox="0 0 100 100"
   version="1.1"
   id="svg8"
   inkscape:version="1.0.1 (3bc2e813f5, 2020-09-07)"
   sodipodi:docname="party.svg">
  <defs
     id="defs2">
    <inkscape:path-effect
       effect="spiro"
       id="path-effect886"
       is_visible="true"
       lpeversion="1" />
  </defs>
  <sodipodi:namedview
     id="base"
     pagecolor="#ffffff"
     bordercolor="#666666"
     borderopacity="1.0"
     inkscape:pageopacity="0.0"
     inkscape:pageshadow="2"
     inkscape:zoom="1.979899"
     inkscape:cx="186.1084"
     inkscape:cy="173.59036"
     inkscape:document-units="mm"
     inkscape:current-layer="layer1"
     inkscape:document-rotation="0"
     showgrid="false"
     inkscape:window-width="1920"
     inkscape:window-height="1017"
     inkscape:window-x="-8"
     inkscape:window-y="-8"
     inkscape:window-maximized="1" />
  <metadata
     id="metadata5">
    <rdf:RDF>
      <cc:Work
         rdf:about="">
        <dc:format>image/svg+xml</dc:format>
        <dc:type
           rdf:resource="http://purl.org/dc/dcmitype/StillImage" />
        <dc:title />
      </cc:Work>
    </rdf:RDF>
  </metadata>
  <g
     inkscape:label="Layer 1"
     inkscape:groupmode="layer"
     id="layer1">
    <path
       sodipodi:type="star"
       style="fill:#ffff00;stroke:#000000;stroke-width:0.47512022;stroke-linejoin:round;stroke-miterlimit:50.79999924;fill-opacity:1;stroke-opacity:1;stroke-dasharray:none"
       id="path841"
       sodipodi:sides="5"
       sodipodi:cx="49.229889"
       sodipodi:cy="51.505829"
       sodipodi:r1="46.505829"
       sodipodi:r2="25.620337"
       sodipodi:arg1="-1.5707963"
       sodipodi:arg2="-0.94247779"
       inkscape:flatsided="false"
       inkscape:rounded="-0.01"
       inkscape:randomized="0"
       d="m 49.22989,5 c -0.298549,0 15.300786,25.954024 15.059255,25.778541 -0.241531,-0.175482 29.262673,6.640134 29.170416,6.356198 -0.09226,-0.283937 -19.955541,22.572146 -19.863284,22.288209 0.09226,-0.283936 2.72752,29.88237 2.969051,29.706887 0.241531,-0.175482 -27.633988,-12.00367 -27.335439,-12.00367 0.298549,0 -27.576973,11.828186 -27.335441,12.003669 0.241531,0.175483 2.876796,-29.990823 2.969053,-29.706886 C 24.955758,59.706885 5.0924744,36.850799 5.0002177,37.134736 4.907961,37.418673 34.412164,30.603058 34.170633,30.778541 33.929102,30.954024 49.528439,5 49.22989,5 Z"
       inkscape:transform-center-x="0.3426531"
       inkscape:transform-center-y="-4.8901056"
       transform="matrix(1.0174116,0,0,1.0697654,-0.08705789,-0.34882675)" />
    <path
       sodipodi:type="star"
       style="fill:#ffe531;fill-opacity:0.526104;stroke:#ffd0ff;stroke-width:0;stroke-linejoin:round;stroke-miterlimit:50.8;stroke-opacity:1"
       id="path845"
       sodipodi:sides="5"
       sodipodi:cx="49.229889"
       sodipodi:cy="51.505829"
       sodipodi:r1="46.505829"
       sodipodi:r2="25.620337"
       sodipodi:arg1="-1.5707963"
       sodipodi:arg2="-0.94247779"
       inkscape:flatsided="false"
       inkscape:rounded="-0.01"
       inkscape:randomized="0"
       d="m 49.22989,5 c -0.298549,0 15.300786,25.954024 15.059255,25.778541 -0.241531,-0.175482 29.262673,6.640134 29.170416,6.356198 -0.09226,-0.283937 -19.955541,22.572146 -19.863284,22.288209 0.09226,-0.283936 2.72752,29.88237 2.969051,29.706887 0.241531,-0.175482 -27.633988,-12.00367 -27.335439,-12.00367 0.298549,0 -27.576973,11.828186 -27.335441,12.003669 0.241531,0.175483 2.876796,-29.990823 2.969053,-29.706886 C 24.955758,59.706885 5.0924744,36.850799 5.0002177,37.134736 4.907961,37.418673 34.412164,30.603058 34.170633,30.778541 33.929102,30.954024 49.528439,5 49.22989,5 Z"
       inkscape:transform-center-x="0.21738395"
       inkscape:transform-center-y="-2.9223481"
       transform="matrix(0.6454626,0,0,0.63929643,18.238138,22.383272)" />
    <path
       sodipodi:type="star"
       style="display:inline;fill:#ffdf00;fill-opacity:0.52610397;stroke:#ffffff;stroke-width:0;stroke-linejoin:round;stroke-miterlimit:50.8;stroke-dasharray:none;stroke-opacity:1"
       id="path853"
       sodipodi:sides="5"
       sodipodi:cx="49.229889"
       sodipodi:cy="51.505829"
       sodipodi:r1="46.505829"
       sodipodi:r2="25.620337"
       sodipodi:arg1="-1.5707963"
       sodipodi:arg2="-0.94247779"
       inkscape:flatsided="false"
       inkscape:rounded="-0.01"
       inkscape:randomized="0"
       d="m 49.22989,5 c -0.298549,0 15.300786,25.954024 15.059255,25.778541 -0.241531,-0.175482 29.262673,6.640134 29.170416,6.356198 -0.09226,-0.283937 -19.955541,22.572146 -19.863284,22.288209 0.09226,-0.283936 2.72752,29.88237 2.969051,29.706887 0.241531,-0.175482 -27.633988,-12.00367 -27.335439,-12.00367 0.298549,0 -27.576973,11.828186 -27.335441,12.003669 0.241531,0.175483 2.876796,-29.990823 2.969053,-29.706886 C 24.955758,59.706885 5.0924744,36.850799 5.0002177,37.134736 4.907961,37.418673 34.412164,30.603058 34.170633,30.778541 33.929102,30.954024 49.528439,5 49.22989,5 Z"
       inkscape:transform-center-x="0.28300837"
       inkscape:transform-center-y="-4.140513"
       transform="matrix(0.84031384,0,0,0.90578373,8.5800086,8.6228026)" />
    <path
       d="M 33.611733,31.961332 49.870579,5.1849966 68.839233,31.241968 c 0,0 -17.162115,5.275337 -35.2275,0.719364 z"
       stroke-width="1.01558"
       stroke="#000000"
       fill="#ffffff"
       id="svg_1" />
    <path
       d="M 39.27407,22.636053 C 49.36075,32.760625 68.483732,30.7536 68.483732,30.7536 l -2.64245,-3.629753 c 0,0 -12.954429,1.480451 -24.908294,-7.21986 l -2.764907,4.553417"
       fill="#007fff"
       id="svg_2"
       style="stroke-width:0.101558" />
    <path
       d="m 68.890847,31.277698 c 0,0 -16.630603,5.275337 -35.227627,0.719364 0,0 -8.909073,0.261365 -4.387308,1.8538 0.75707,0.266645 1.85467,0.375909 2.896009,0.366396 0.425182,0.299573 0.512929,0.637517 1.627821,0.824632 1.389874,0.233392 2.896656,0.224441 3.740569,0.103107 0,0 -0.202204,0.563184 1.52162,0.729678 2.217655,0.21421 2.463343,-0.250023 2.583478,-0.258653 0,0 0.182718,0.56574 1.420327,0.733989 0.751391,0.102073 1.786665,-0.130924 2.441794,-0.313643 0,0 0.351244,0.485172 1.675696,0.546001 0.977463,0.04492 1.586269,-0.285348 2.080485,-0.435454 0.604931,0.152502 1.334517,0.502514 2.731356,0.42418 1.319935,-0.07409 2.191075,-0.368472 2.631353,-0.696503 0,0 0.999146,0.399008 2.212366,0.323874 1.582915,-0.09807 1.962805,-0.588201 1.962805,-0.588201 0,0 0.799264,0.217727 1.761889,0.0936 1.182123,-0.152424 1.308837,-0.779951 1.308837,-0.779951 0,0 0.993469,0.433538 1.709501,0.29414 1.108054,-0.215649 0.939143,-0.479415 1.174766,-0.673804 0.713066,0.165454 1.459814,0.125889 2.198686,-0.07034 0.963662,-0.255936 0.900431,-0.658699 0.900431,-0.658699 0,0 1.014114,0.09168 1.5513,-0.02318 0.920176,-0.196784 1.073731,-0.765881 1.297871,-1.005512 0.658869,-0.03213 1.681888,0.09679 2.186167,-0.389734 1.6775,-1.618647 -4.000192,-1.119089 -4.000192,-1.119089 z"
       fill="#007fff"
       id="svg_3"
       style="stroke-width:0.101558" />
    <path
       d="m 43.075801,16.375188 c 9.236959,5.612639 20.297491,7.358536 20.297491,7.358536 l -3.722241,-5.113241 c 0,0 -7.856768,-0.05739 -15.04408,-4.767147 z"
       fill="#7fff00"
       id="svg_4"
       style="stroke-width:0.101558" />
    <path
       d="m 36.648139,26.960791 c 0,0 1.250768,4.933959 16.238845,6.76546 0,0 -7.67237,0.491007 -14.718774,-0.829344 -2.098294,-0.643353 -3.202219,-3.165763 -3.202219,-3.165763 z"
       fill="#7fff00"
       id="svg_5"
       style="stroke-width:0.101558" />
    <path
       d="m 46.55158,10.358664 c 0,0 3.866121,3.414821 10.539088,4.841881 l -2.678323,-3.679229 c 0,0 -3.994644,-1.288861 -6.329721,-3.6843432 z"
       fill="#007fff"
       id="svg_6"
       style="stroke-width:0.101558" />
    <path
       d="m 51.790003,1.0177346 -1.435975,2.687331 0.01888,0.034101 3.969033,-1.223897 0.641854,1.1598152 -4.337031,0.5587618 0.02827,0.051203 3.77593,1.4854307 -1.394893,0.982249 -3.001018,-2.0311063 -0.05505,0.011693 -0.431448,2.7789735 -1.909255,-0.2807469 1.464333,-2.636179 -0.02827,-0.051203 -3.886371,1.206383 -0.641768,-1.1598158 4.227007,-0.5353233 -0.01896,-0.034152 -3.749235,-1.5483274 1.349318,-0.9535576 3.028545,2.0253375 0.05514,-0.011694 0.348701,-2.76150925 z"
       fill="#7fff00"
       id="svg_8"
       style="stroke-width:0.065452;fill:#ff0000;fill-opacity:1" />
    <ellipse
       style="fill:#000000;fill-opacity:1;stroke:#fffc00;stroke-width:0;stroke-linejoin:round;stroke-miterlimit:50.8"
       id="path1113-6"
       cx="41.245678"
       cy="48.252892"
       rx="4.1426778"
       ry="9.3544331" />
    <ellipse
       style="fill:#000000;fill-opacity:1;stroke:#fffc00;stroke-width:0;stroke-linejoin:round;stroke-miterlimit:50.8"
       id="path1113-6-1"
       cx="57.97644"
       cy="48.252769"
       rx="4.1426778"
       ry="9.3544331" />
    <path
       style="fill:#000000;fill-opacity:1;stroke-width:1.346;stroke-linejoin:round"
       id="path961"
       cx="49.467094"
       cy="66.517693"
       r="3.3408689" />
    <circle
       style="fill:#000000;fill-opacity:1;stroke-width:1.346;stroke-linejoin:round"
       id="path978"
       cx="50.380306"
       cy="70.02462"
       r="5.0781207" />
  </g>
</svg>
