<?xml version="1.0" encoding="UTF-8" standalone="no"?>
<svg
   xmlns:dc="http://purl.org/dc/elements/1.1/"
   xmlns:cc="http://creativecommons.org/ns#"
   xmlns:rdf="http://www.w3.org/1999/02/22-rdf-syntax-ns#"
   xmlns:svg="http://www.w3.org/2000/svg"
   xmlns="http://www.w3.org/2000/svg"
   xmlns:xlink="http://www.w3.org/1999/xlink"
   xmlns:sodipodi="http://sodipodi.sourceforge.net/DTD/sodipodi-0.dtd"
   xmlns:inkscape="http://www.inkscape.org/namespaces/inkscape"
   width="100mm"
   height="100mm"
   viewBox="0 0 100 100"
   version="1.1"
   id="svg8"
   inkscape:version="1.0.1 (3bc2e813f5, 2020-09-07)"
   sodipodi:docname="pout.svg">
  <defs
     id="defs2">
    <inkscape:path-effect
       effect="spiro"
       id="path-effect886"
       is_visible="true"
       lpeversion="1" />
    <linearGradient
       fill="#000000"
       id="svg_87">
      <stop
         fill="#000000"
         offset="0"
         id="svg_133"
         stop-color="#ffff00" />
      <stop
         fill="#000000"
         offset="1"
         id="svg_132"
         stop-opacity="0"
         stop-color="#ffff00" />
    </linearGradient>
    <linearGradient
       fill="#000000"
       id="svg_77">
      <stop
         fill="#000000"
         offset="0"
         id="svg_131"
         stop-color="#ffc400" />
      <stop
         fill="#000000"
         offset="1"
         id="svg_130"
         stop-opacity="0"
         stop-color="#ffac00" />
    </linearGradient>
    <linearGradient
       fill="#000000"
       id="svg_79">
      <stop
         fill="#000000"
         offset="0"
         id="svg_129"
         stop-color="#ff9400" />
      <stop
         fill="#000000"
         offset="1"
         id="svg_128"
         stop-opacity="0"
         stop-color="#ff8900" />
    </linearGradient>
    <radialGradient
       fill="#000000"
       xlink:href="#svg_79"
       id="svg_127"
       cx="14.285715"
       cy="365.21933"
       fx="14.285715"
       fy="365.21933"
       r="249.35237"
       gradientTransform="rotate(-7.4999999,1430.5732,-2168.8213)"
       gradientUnits="userSpaceOnUse" />
    <radialGradient
       fill="#000000"
       xlink:href="#svg_79"
       id="svg_126"
       cx="355.35715"
       cy="554.86218"
       fx="355.35715"
       fy="554.86218"
       r="136.07143"
       gradientUnits="userSpaceOnUse" />
    <linearGradient
       fill="#000000"
       xlink:href="#svg_77"
       id="svg_125"
       x1="213.17995"
       y1="554.86218"
       x2="497.53433"
       y2="554.86218"
       gradientUnits="userSpaceOnUse" />
    <radialGradient
       fill="#000000"
       xlink:href="#svg_79"
       id="svg_124"
       cx="355.35715"
       cy="554.86218"
       fx="355.35715"
       fy="554.86218"
       r="136.07143"
       gradientUnits="userSpaceOnUse" />
    <linearGradient
       fill="#000000"
       xlink:href="#svg_81"
       id="svg_121"
       x1="213.17995"
       y1="554.86218"
       x2="497.53433"
       y2="554.86218"
       gradientUnits="userSpaceOnUse" />
    <linearGradient
       fill="#000000"
       id="svg_81">
      <stop
         fill="#000000"
         offset="0"
         id="svg_120"
         stop-color="#fff600" />
      <stop
         fill="#000000"
         offset="1"
         id="svg_119"
         stop-opacity="0"
         stop-color="#ffac00" />
    </linearGradient>
    <radialGradient
       fill="#000000"
       r="136.07143"
       fy="554.86218"
       fx="355.35715"
       cy="554.86218"
       cx="355.35715"
       gradientUnits="userSpaceOnUse"
       id="svg_118"
       xlink:href="#svg_79" />
    <radialGradient
       fill="#000000"
       xlink:href="#svg_79"
       id="svg_116"
       cx="14.285715"
       cy="365.21933"
       fx="14.285715"
       fy="365.21933"
       r="249.35237"
       gradientTransform="translate(342.87507,163.16068)"
       gradientUnits="userSpaceOnUse" />
    <radialGradient
       fill="#000000"
       r="249.35237"
       fy="365.21933"
       fx="14.285715"
       cy="365.21933"
       cx="14.285715"
       gradientTransform="rotate(-45,382.61611,32.723522)"
       gradientUnits="userSpaceOnUse"
       id="svg_113"
       xlink:href="#svg_79" />
    <radialGradient
       fill="#000000"
       r="136.07143"
       fy="554.86218"
       fx="355.35715"
       cy="554.86218"
       cx="355.35715"
       gradientUnits="userSpaceOnUse"
       id="svg_112"
       xlink:href="#svg_79" />
    <radialGradient
       fill="#000000"
       xlink:href="#svg_79"
       id="svg_104"
       cx="355.35715"
       cy="554.86218"
       fx="355.35715"
       fy="554.86218"
       r="136.07143"
       gradientUnits="userSpaceOnUse" />
    <radialGradient
       fill="#000000"
       xlink:href="#svg_87"
       id="svg_96"
       cx="355.35715"
       cy="554.86218"
       fx="355.35715"
       fy="554.86218"
       r="141.70752"
       gradientUnits="userSpaceOnUse" />
    <radialGradient
       fill="#000000"
       xlink:href="#svg_79"
       id="svg_95"
       gradientUnits="userSpaceOnUse"
       gradientTransform="rotate(-7.4999999,1430.5732,-2168.8213)"
       cx="14.285715"
       cy="365.21933"
       fx="14.285715"
       fy="365.21933"
       r="249.35237" />
    <radialGradient
       fill="#000000"
       xlink:href="#svg_79"
       id="svg_94"
       gradientUnits="userSpaceOnUse"
       gradientTransform="rotate(-45,382.61611,32.723522)"
       cx="14.285715"
       cy="365.21933"
       fx="14.285715"
       fy="365.21933"
       r="249.35237" />
    <radialGradient
       fill="#000000"
       xlink:href="#svg_79"
       id="svg_93"
       gradientUnits="userSpaceOnUse"
       cx="355.35715"
       cy="554.86218"
       fx="355.35715"
       fy="554.86218"
       r="136.07143" />
    <radialGradient
       fill="#000000"
       xlink:href="#svg_79"
       id="svg_91"
       gradientUnits="userSpaceOnUse"
       cx="355.35715"
       cy="554.86218"
       fx="355.35715"
       fy="554.86218"
       r="136.07143" />
    <radialGradient
       fill="#000000"
       xlink:href="#svg_79"
       id="svg_89"
       gradientUnits="userSpaceOnUse"
       gradientTransform="rotate(-45,382.61611,32.723522)"
       cx="14.285715"
       cy="365.21933"
       fx="14.285715"
       fy="365.21933"
       r="249.35237" />
    <radialGradient
       fill="#000000"
       xlink:href="#svg_79"
       id="svg_88"
       gradientUnits="userSpaceOnUse"
       gradientTransform="rotate(-7.4999999,1430.5732,-2168.8213)"
       cx="14.285715"
       cy="365.21933"
       fx="14.285715"
       fy="365.21933"
       r="249.35237" />
    <radialGradient
       fill="#000000"
       xlink:href="#svg_87"
       id="svg_86"
       gradientUnits="userSpaceOnUse"
       cx="355.35715"
       cy="554.86218"
       fx="355.35715"
       fy="554.86218"
       r="141.70752" />
    <radialGradient
       fill="#000000"
       xlink:href="#svg_79"
       id="svg_85"
       gradientUnits="userSpaceOnUse"
       gradientTransform="rotate(-7.4999999,1430.5732,-2168.8213)"
       cx="14.285715"
       cy="365.21933"
       fx="14.285715"
       fy="365.21933"
       r="249.35237" />
    <radialGradient
       fill="#000000"
       xlink:href="#svg_79"
       id="svg_83"
       gradientUnits="userSpaceOnUse"
       gradientTransform="rotate(-45,382.61611,32.723522)"
       cx="14.285715"
       cy="365.21933"
       fx="14.285715"
       fy="365.21933"
       r="249.35237" />
    <radialGradient
       fill="#000000"
       xlink:href="#svg_79"
       id="svg_82"
       gradientUnits="userSpaceOnUse"
       cx="355.35715"
       cy="554.86218"
       fx="355.35715"
       fy="554.86218"
       r="136.07143" />
    <radialGradient
       fill="#000000"
       xlink:href="#svg_79"
       id="svg_78"
       gradientUnits="userSpaceOnUse"
       cx="355.35715"
       cy="554.86218"
       fx="355.35715"
       fy="554.86218"
       r="136.07143" />
    <radialGradient
       fill="#000000"
       xlink:href="#svg_79"
       id="svg_74"
       cx="357.14389"
       cy="600.25977"
       fx="357.14389"
       fy="600.25977"
       r="51.997475"
       gradientTransform="matrix(1,0,0,0.34434018,0,393.5662)"
       gradientUnits="userSpaceOnUse" />
  </defs>
  <sodipodi:namedview
     id="base"
     pagecolor="#ffffff"
     bordercolor="#666666"
     borderopacity="1.0"
     inkscape:pageopacity="0.0"
     inkscape:pageshadow="2"
     inkscape:zoom="1.979899"
     inkscape:cx="211.45304"
     inkscape:cy="211.11725"
     inkscape:document-units="mm"
     inkscape:current-layer="layer1"
     inkscape:document-rotation="0"
     showgrid="false"
     inkscape:window-width="1920"
     inkscape:window-height="1017"
     inkscape:window-x="-8"
     inkscape:window-y="-8"
     inkscape:window-maximized="1" />
  <metadata
     id="metadata5">
    <rdf:RDF>
      <cc:Work
         rdf:about="">
        <dc:format>image/svg+xml</dc:format>
        <dc:type
           rdf:resource="http://purl.org/dc/dcmitype/StillImage" />
        <dc:title></dc:title>
      </cc:Work>
    </rdf:RDF>
  </metadata>
  <g
     inkscape:label="Layer 1"
     inkscape:groupmode="layer"
     id="layer1">
    <path
       sodipodi:type="star"
       style="fill:#ffff00;stroke:#000000;stroke-width:0.47512022;stroke-linejoin:round;stroke-miterlimit:50.79999924;fill-opacity:1;stroke-opacity:1;stroke-dasharray:none"
       id="path841"
       sodipodi:sides="5"
       sodipodi:cx="49.229889"
       sodipodi:cy="51.505829"
       sodipodi:r1="46.505829"
       sodipodi:r2="25.620337"
       sodipodi:arg1="-1.5707963"
       sodipodi:arg2="-0.94247779"
       inkscape:flatsided="false"
       inkscape:rounded="-0.01"
       inkscape:randomized="0"
       d="m 49.22989,5 c -0.298549,0 15.300786,25.954024 15.059255,25.778541 -0.241531,-0.175482 29.262673,6.640134 29.170416,6.356198 -0.09226,-0.283937 -19.955541,22.572146 -19.863284,22.288209 0.09226,-0.283936 2.72752,29.88237 2.969051,29.706887 0.241531,-0.175482 -27.633988,-12.00367 -27.335439,-12.00367 0.298549,0 -27.576973,11.828186 -27.335441,12.003669 0.241531,0.175483 2.876796,-29.990823 2.969053,-29.706886 C 24.955758,59.706885 5.0924744,36.850799 5.0002177,37.134736 4.907961,37.418673 34.412164,30.603058 34.170633,30.778541 33.929102,30.954024 49.528439,5 49.22989,5 Z"
       inkscape:transform-center-x="0.3426531"
       inkscape:transform-center-y="-4.8901056"
       transform="matrix(1.0174116,0,0,1.0697654,-0.08705789,-0.34882675)" />
    <path
       sodipodi:type="star"
       style="fill:#ffe531;fill-opacity:0.526104;stroke:#ffd0ff;stroke-width:0;stroke-linejoin:round;stroke-miterlimit:50.8;stroke-opacity:1"
       id="path845"
       sodipodi:sides="5"
       sodipodi:cx="49.229889"
       sodipodi:cy="51.505829"
       sodipodi:r1="46.505829"
       sodipodi:r2="25.620337"
       sodipodi:arg1="-1.5707963"
       sodipodi:arg2="-0.94247779"
       inkscape:flatsided="false"
       inkscape:rounded="-0.01"
       inkscape:randomized="0"
       d="m 49.22989,5 c -0.298549,0 15.300786,25.954024 15.059255,25.778541 -0.241531,-0.175482 29.262673,6.640134 29.170416,6.356198 -0.09226,-0.283937 -19.955541,22.572146 -19.863284,22.288209 0.09226,-0.283936 2.72752,29.88237 2.969051,29.706887 0.241531,-0.175482 -27.633988,-12.00367 -27.335439,-12.00367 0.298549,0 -27.576973,11.828186 -27.335441,12.003669 0.241531,0.175483 2.876796,-29.990823 2.969053,-29.706886 C 24.955758,59.706885 5.0924744,36.850799 5.0002177,37.134736 4.907961,37.418673 34.412164,30.603058 34.170633,30.778541 33.929102,30.954024 49.528439,5 49.22989,5 Z"
       inkscape:transform-center-x="0.21738395"
       inkscape:transform-center-y="-2.9223481"
       transform="matrix(0.6454626,0,0,0.63929643,18.238138,22.383272)" />
    <path
       sodipodi:type="star"
       style="display:inline;fill:#ffdf00;fill-opacity:0.52610397;stroke:#ffffff;stroke-width:0;stroke-linejoin:round;stroke-miterlimit:50.8;stroke-dasharray:none;stroke-opacity:1"
       id="path853"
       sodipodi:sides="5"
       sodipodi:cx="49.229889"
       sodipodi:cy="51.505829"
       sodipodi:r1="46.505829"
       sodipodi:r2="25.620337"
       sodipodi:arg1="-1.5707963"
       sodipodi:arg2="-0.94247779"
       inkscape:flatsided="false"
       inkscape:rounded="-0.01"
       inkscape:randomized="0"
       d="m 49.22989,5 c -0.298549,0 15.300786,25.954024 15.059255,25.778541 -0.241531,-0.175482 29.262673,6.640134 29.170416,6.356198 -0.09226,-0.283937 -19.955541,22.572146 -19.863284,22.288209 0.09226,-0.283936 2.72752,29.88237 2.969051,29.706887 0.241531,-0.175482 -27.633988,-12.00367 -27.335439,-12.00367 0.298549,0 -27.576973,11.828186 -27.335441,12.003669 0.241531,0.175483 2.876796,-29.990823 2.969053,-29.706886 C 24.955758,59.706885 5.0924744,36.850799 5.0002177,37.134736 4.907961,37.418673 34.412164,30.603058 34.170633,30.778541 33.929102,30.954024 49.528439,5 49.22989,5 Z"
       inkscape:transform-center-x="0.28300837"
       inkscape:transform-center-y="-4.140513"
       transform="matrix(0.84031384,0,0,0.90578373,8.5800086,8.6228026)" />
    <path
       d="m 62.505571,58.690696 c -0.836718,-0.699978 -1.599864,-1.501527 -2.36482,-2.300802 -0.453939,-0.47411 -0.857975,-1.005037 -1.281913,-1.513587 -0.563388,-0.675503 -1.161605,-1.303281 -1.853743,-1.800467 -0.935313,-0.671482 -1.951587,-0.962207 -3.042937,-0.782668 -0.844257,0.138803 -1.593383,0.561172 -2.247681,1.198738 -0.351722,0.343172 -0.669825,0.724628 -0.930941,1.165174 -0.260966,-0.440721 -0.579069,-0.822176 -0.930943,-1.165174 -0.653997,-0.637566 -1.403123,-1.059931 -2.247679,-1.198738 -1.091202,-0.179356 -2.107774,0.111367 -3.042939,0.782668 -0.691837,0.497186 -1.290202,1.124789 -1.853442,1.800467 -0.424088,0.508376 -0.828275,1.039302 -1.281911,1.513587 -0.764957,0.799101 -1.528103,1.600649 -2.365122,2.300802 -0.667263,0.558198 -1.347343,1.087376 -2.175013,1.315866 0.02607,0.07815 0.07147,0.09946 0.116385,0.127957 a 31.390925,36.400581 0 0 1 1.096175,0.719034 21.756011,25.228037 0 0 1 1.086979,0.798577 c 0,0 0.451374,0.381805 0.9124,0.772526 3.216612,2.649041 4.998896,7.520389 9.16997,8.186625 0.274082,0.06224 0.549822,0.108207 0.827673,0.134782 a 9.8235155,11.391243 0 0 0 0.687314,0.03777 9.638684,11.176915 0 0 0 0.687466,-0.03777 7.4805556,8.6743722 0 0 0 0.827369,-0.134782 c 4.171225,-0.666411 5.953509,-5.537584 9.170123,-8.186625 L 62.38074,61.65213 a 21.752393,25.223841 0 0 1 1.086829,-0.798577 31.542289,36.5761 0 0 1 1.096476,-0.719034 c 0.04493,-0.0285 0.09015,-0.04983 0.116232,-0.127957 -0.827219,-0.228315 -1.507297,-0.757668 -2.174712,-1.315866 z m -7.872232,2.719667 c -0.47248,0.224991 -0.949637,0.437398 -1.405835,0.705398 -0.629422,0.369917 -1.264725,0.698754 -1.978874,0.816581 a 4.1223788,4.7802664 0 0 1 -0.465094,0.04247 4.1250926,4.7834132 0 0 1 -0.465096,-0.04247 c -0.714148,-0.117821 -1.34945,-0.446664 -1.978571,-0.816581 -0.456351,-0.268 -0.933657,-0.48023 -1.405988,-0.705398 -0.06121,-0.02902 -0.125129,-0.04581 -0.156482,-0.128841 0.533387,-0.172904 1.009185,-0.485299 1.491165,-0.783191 0.213476,-0.13233 0.426047,-0.266598 0.65279,-0.369918 0.336948,-0.153491 0.661534,-0.05559 0.987929,0.03479 0.187395,0.0521 0.372075,0.117309 0.558867,0.172375 0.106139,0.03147 0.211366,0.04685 0.315692,0.05122 a 1.484985,1.7219728 0 0 0 0.315843,-0.05122 c 0.186791,-0.05507 0.371171,-0.120271 0.558565,-0.172375 0.326546,-0.09021 0.651283,-0.18828 0.98793,-0.03479 0.226893,0.103322 0.439615,0.23758 0.652789,0.369918 0.482281,0.297892 0.95793,0.610296 1.491469,0.783191 -0.03181,0.08287 -0.09589,0.09982 -0.157092,0.128841 z"
       fill="#ed1c24"
       id="path4"
       style="stroke-width:0.162344" />
    <path
       d="m 72.287924,36.694711 c -0.06423,0.09009 -0.224803,0.260258 -0.362438,0.375372 l -0.247743,0.205203 -0.545956,-0.120119 c -0.97262,-0.215213 -1.569041,-0.280278 -2.807758,-0.310307 -1.720439,-0.04004 -2.977509,0.135133 -4.578667,0.640634 -0.61935,0.200198 -1.936068,0.800793 -2.615065,1.196184 -1.624093,0.955946 -3.335368,2.442418 -4.477737,3.903865 -0.697349,0.895886 -0.68359,0.905896 0.100933,0.07507 1.197433,-1.271259 2.01865,-1.976957 3.344535,-2.877849 1.747969,-1.181169 3.931783,-2.027007 6.129356,-2.377353 1.399296,-0.220219 3.257372,-0.225223 4.675014,-0.005 l 0.412906,0.06506 -0.183517,0.08508 c -0.536777,0.250247 -1.380939,0.395391 -2.179222,0.375371 -1.142374,-0.03504 -2.234282,-0.01501 -2.638007,0.05005 -2.445318,0.365362 -4.81724,1.586571 -7.134098,3.678642 -1.151545,1.036026 -2.482022,2.547522 -3.35371,3.80877 -0.334911,0.480476 -0.316559,0.475471 0.256921,-0.07507 1.798432,-1.731714 3.601456,-3.103072 5.294371,-4.023983 0.527602,-0.290288 1.54151,-0.780773 1.610333,-0.780773 0.02292,0 -0.04592,0.140139 -0.155997,0.310307 -0.275264,0.435431 -0.463362,0.860852 -0.605591,1.376363 -0.110109,0.390386 -0.123868,0.52552 -0.123868,1.166154 0,0.645639 0.01375,0.775768 0.123868,1.171159 0.229394,0.830823 0.527602,1.366353 1.068972,1.936918 0.344086,0.365362 0.701941,0.630624 1.12861,0.845837 l 0.284439,0.140139 -0.298207,-0.02502 c -1.312126,-0.09509 -3.151844,-0.360357 -5.317306,-0.770763 l -1.399291,-0.265262 -0.435853,0.08008 c -0.467955,0.09009 -1.74796,0.51551 -1.380939,0.46546 0.559722,-0.08008 1.247895,-0.125124 1.513992,-0.100099 0.165164,0.02002 0.743228,0.120119 1.284598,0.225223 3.913432,0.775768 7.074451,1.041031 9.450952,0.795788 0.628534,-0.06506 1.422228,-0.215213 1.770907,-0.345342 l 0.284444,-0.100099 0.357851,0.100099 c 0.467959,0.130129 0.752407,0.250247 1.220368,0.5055 0.394554,0.215214 1.036849,0.650645 1.335061,0.905897 0.201867,0.180179 0.21104,0.145144 0.0367,-0.185183 -0.371614,-0.710699 -1.142372,-1.336318 -1.940656,-1.571552 l -0.220216,-0.06506 0.334911,-0.185183 c 0.178926,-0.105104 0.445019,-0.270268 0.582654,-0.370366 l 0.256921,-0.185184 0.270684,0.07507 c 0.844162,0.240238 1.582805,0.775768 1.981947,1.431417 0.151399,0.250248 0.1881,0.195193 0.06881,-0.110109 -0.224807,-0.570565 -0.724879,-1.08107 -1.417643,-1.456442 l -0.467959,-0.255253 0.123871,-0.100099 c 0.06881,-0.05505 0.261507,-0.245243 0.426669,-0.420416 l 0.298208,-0.320317 0.367028,0.08008 c 0.550541,0.120119 1.151549,0.460455 1.532338,0.865857 0.169751,0.185183 0.376204,0.460456 0.454197,0.610604 l 0.151397,0.275273 -0.03211,-0.200198 c -0.119285,-0.760754 -0.940506,-1.621606 -1.835135,-1.926908 -0.100935,-0.03504 -0.201866,-0.08008 -0.220217,-0.100099 -0.02293,-0.02002 0.02294,-0.135134 0.09635,-0.255253 0.165162,-0.270267 0.623944,-1.246233 0.596417,-1.271258 -0.0092,-0.01502 -0.100931,0.09509 -0.201866,0.240237 -0.256917,0.375372 -1.133195,1.351338 -1.513988,1.691675 -0.660649,0.590585 -1.468106,1.1111 -2.270981,1.471457 -0.665236,0.295292 -1.848899,0.6056 -2.679297,0.700694 l -0.27527,0.03504 0.330324,-0.180179 c 0.50925,-0.270267 0.830398,-0.530525 1.229541,-0.990981 0.610181,-0.705698 0.972622,-1.556541 1.078141,-2.547522 0.08717,-0.840832 -0.0413,-1.611595 -0.394553,-2.337313 -0.348678,-0.730724 -0.871691,-1.336323 -1.48646,-1.72671 L 68.149689,39.58257 h 0.169749 c 0.289034,0 1.229541,0.150149 1.770908,0.280278 1.518575,0.370366 3.08303,1.211199 4.262102,2.287264 l 0.417496,0.385382 0.339498,-0.05005 c 0.74782,-0.115114 1.683741,-0.400396 2.550843,-0.780773 0.642295,-0.280277 1.6975,-0.850842 2.119582,-1.151139 0.293621,-0.205204 0.279857,-0.205204 -0.19728,0.04505 -1.174485,0.600594 -2.738942,0.830822 -4.147406,0.605599 -0.536778,-0.08508 -0.720291,-0.170168 -0.371616,-0.170168 0.307385,0 1.036851,-0.215213 1.46811,-0.440436 0.500073,-0.255253 0.945094,-0.580575 1.353412,-0.985976 0.302798,-0.300298 0.793698,-0.920912 0.793698,-1.000991 0,-0.02002 -0.09634,0.06006 -0.215629,0.175173 -0.454197,0.435431 -1.564455,0.900892 -2.725179,1.146135 -0.417491,0.08508 -0.720289,0.135133 -1.440583,0.230228 -0.137635,0.02002 -0.08716,-0.01001 0.19728,-0.120119 0.903802,-0.350347 1.67915,-1.005996 2.270981,-1.916898 0.238567,-0.370367 0.523015,-0.915907 0.348674,-0.665659 -0.899214,1.266254 -2.307684,1.931913 -4.078588,1.921903 h -0.66524 l 0.311974,-0.100099 c 0.743231,-0.230228 1.371766,-0.750744 1.867253,-1.546531 0.165162,-0.265263 0.477132,-0.900892 0.44502,-0.900892 -0.0092,0 -0.09634,0.135134 -0.188103,0.295292 -0.243153,0.430426 -0.747818,0.920912 -1.192836,1.156145 -0.715704,0.375371 -1.734204,0.530525 -2.665537,0.405401 -0.578069,-0.08008 -0.706527,-0.130129 -0.44502,-0.165164 0.325735,-0.05005 0.770757,-0.315312 1.087319,-0.645639 l 0.298206,-0.310307 0.490901,0.115114 c 0.417491,0.09009 0.775343,0.180178 1.321299,0.330327 0.07341,0.02002 0.07799,0.01501 0.02294,-0.02503 -0.09176,-0.06006 -1.440584,-0.55555 -1.523165,-0.55555 -0.169749,-0.005 -0.183512,-0.08508 -0.0413,-0.345342 0.293621,-0.540535 0.348674,-0.700693 0.128459,-0.390386 z"
       id="path12"
       style="fill:#000000;stroke:none;stroke-width:0.00479185" />
    <path
       d="m 29.543004,36.073307 c 0,0.02002 0.08259,0.190188 0.183515,0.380376 0.100933,0.190189 0.178932,0.355352 0.169756,0.365362 -0.0092,0.005 -0.192691,0.07007 -0.403734,0.140139 -0.467954,0.150148 -1.33506,0.480475 -1.316708,0.500495 0.0092,0.01001 0.256921,-0.05005 0.559712,-0.125124 0.298208,-0.08008 0.71571,-0.185183 0.926744,-0.230228 l 0.380789,-0.08508 0.27069,0.295293 c 0.307383,0.335332 0.642294,0.55555 1.041436,0.675669 l 0.275272,0.08008 -0.344086,0.07007 c -0.481723,0.09509 -1.587398,0.08008 -2.014067,-0.02002 -0.504658,-0.125124 -0.935919,-0.315313 -1.321292,-0.59559 -0.330327,-0.245243 -0.720293,-0.690684 -0.862522,-0.995986 -0.04125,-0.08008 -0.08259,-0.145144 -0.09176,-0.145144 -0.01375,0 0.04134,0.140139 0.119285,0.310307 0.362447,0.790783 1.000149,1.516502 1.619508,1.841824 0.20646,0.105104 0.458789,0.215213 0.568898,0.245243 0.389965,0.09009 0.252329,0.115114 -0.518426,0.09009 -1.784673,-0.06506 -2.963745,-0.620615 -3.895081,-1.836819 -0.36703,-0.480475 0.11011,0.355352 0.523019,0.915907 0.541361,0.730723 1.211183,1.256244 2.01865,1.566551 0.367021,0.145143 0.238561,0.155153 -0.463372,0.04004 -1.651628,-0.265263 -2.949985,-0.755748 -3.555577,-1.336323 -0.270689,-0.255253 -0.229394,-0.180179 0.160572,0.335332 0.541361,0.705699 1.293774,1.306293 2.046177,1.63662 0.376206,0.165164 1.050611,0.340337 1.307533,0.345342 0.3028,0.005 0.03667,0.09009 -0.541361,0.170168 -1.440586,0.205204 -2.826117,-0.01001 -4.032717,-0.620614 -0.211042,-0.105104 -0.38079,-0.185183 -0.38079,-0.175173 0,0.01501 0.532186,0.355351 1.013918,0.640634 1.068963,0.635629 2.651769,1.226214 3.803313,1.411397 l 0.389966,0.06006 0.215635,-0.210208 c 1.124017,-1.10109 2.647176,-1.966947 4.239158,-2.402378 0.582656,-0.160158 1.541519,-0.325322 1.890198,-0.325322 h 0.160572 l -0.224802,0.160159 c -0.793699,0.575569 -1.486465,1.661644 -1.692915,2.642616 -0.412909,1.991972 0.385373,3.933894 2.01865,4.914865 0.28444,0.170169 0.233977,0.170169 -0.54137,0.01502 -1.486456,-0.300297 -2.715999,-0.870862 -3.826258,-1.771754 -0.500074,-0.410406 -1.243302,-1.191179 -1.660795,-1.751734 -0.188108,-0.250248 -0.353262,-0.445441 -0.362438,-0.435431 -0.02292,0.03003 0.389965,0.910902 0.568888,1.221209 0.08717,0.145144 0.155988,0.270267 0.155988,0.280277 0,0.01001 -0.12846,0.06506 -0.284448,0.130129 -0.931327,0.365362 -1.688323,1.16115 -1.807608,1.901883 -0.0275,0.165163 -0.01833,0.160159 0.160571,-0.130129 0.435845,-0.710703 1.133203,-1.221209 1.917717,-1.401387 l 0.376206,-0.08508 0.302801,0.305302 c 0.165163,0.170168 0.362438,0.360357 0.435844,0.420416 l 0.133044,0.105104 -0.426669,0.235233 c -0.724876,0.385381 -1.183664,0.845837 -1.43141,1.426412 -0.169747,0.385382 -0.128451,0.415411 0.105526,0.07507 0.23857,-0.350347 0.61936,-0.715708 0.986381,-0.940931 0.243163,-0.155154 1.013918,-0.460456 1.156137,-0.460456 0.03667,0 0.215635,0.105104 0.394558,0.230228 0.178923,0.125124 0.440428,0.285282 0.582657,0.355351 l 0.256921,0.13013 -0.316568,0.105104 c -0.481723,0.170168 -0.949678,0.460455 -1.298357,0.810802 -0.31656,0.320317 -0.601008,0.735729 -0.669822,0.965956 -0.03208,0.115114 -0.02292,0.110109 0.165164,-0.05505 0.734052,-0.640634 1.78008,-1.216204 2.569187,-1.411397 0.311976,-0.08008 0.325735,-0.08008 0.720293,0.04505 0.220218,0.07007 0.688173,0.175174 1.041435,0.235233 0.582657,0.100099 0.812051,0.110109 2.523317,0.115114 1.472697,0 2.055354,-0.02002 2.683889,-0.09009 1.734201,-0.190188 3.413348,-0.450446 5.023681,-0.785778 0.403734,-0.08008 0.931336,-0.165163 1.169906,-0.180178 0.376197,-0.02502 1.188247,0.03003 1.559861,0.105104 0.06426,0.01501 -0.133044,-0.06507 -0.435844,-0.175173 -0.646887,-0.235233 -1.119434,-0.350347 -1.445169,-0.350347 -0.133044,0 -0.692766,0.09009 -1.252478,0.200198 -2.023243,0.395391 -4.106123,0.705699 -5.193438,0.775768 l -0.504667,0.03003 0.325744,-0.190188 c 1.082722,-0.640635 1.816784,-1.68667 2.114991,-2.997969 0.09176,-0.425421 0.105517,-1.431416 0.01833,-1.821803 -0.137637,-0.640634 -0.31656,-1.086075 -0.61936,-1.566551 -0.256921,-0.410406 -0.289032,-0.410406 0.678997,0.05505 1.853487,0.895887 4.083179,2.507482 5.918314,4.294251 0.224811,0.215213 0.458788,0.440436 0.527602,0.49549 0.105526,0.09009 0.100933,0.07507 -0.04125,-0.145143 -0.27068,-0.410407 -1.064379,-1.441427 -1.518575,-1.961943 -2.922458,-3.363329 -5.941258,-5.240187 -9.171091,-5.705648 -0.467964,-0.06506 -0.798291,-0.07507 -1.812199,-0.05005 -0.775348,0.02002 -1.385532,0.01001 -1.628685,-0.02002 -0.605591,-0.08008 -1.513992,-0.370367 -1.435994,-0.455451 0.100934,-0.105104 1.458929,-0.215213 2.628834,-0.215213 1.660795,0 2.633417,0.125124 4.096938,0.52552 1.936068,0.530525 3.555577,1.331318 5.239317,2.587562 0.903808,0.675669 2.303098,1.971952 2.885755,2.672646 0.165164,0.200198 0.302791,0.350346 0.302791,0.330327 0,-0.05505 -0.656054,-0.905897 -1.027677,-1.331318 -0.367021,-0.420416 -1.316708,-1.356343 -1.793839,-1.771754 -2.110408,-1.821804 -4.693363,-2.997968 -7.340548,-3.35332 -0.321152,-0.04004 -0.98639,-0.06506 -1.835135,-0.06006 -1.413059,0.005 -1.949836,0.05505 -3.032567,0.295292 -0.541361,0.120119 -0.541361,0.120119 -0.688174,0.02502 -0.07801,-0.05505 -0.23857,-0.210208 -0.357854,-0.350346 -0.114693,-0.135134 -0.211043,-0.230228 -0.211043,-0.210208 z"
       id="path14"
       style="fill:#000000;stroke:none;stroke-width:0.00479185" />
    <path
       style="fill:#000000;fill-opacity:1;stroke:#000000;stroke-width:0;stroke-linejoin:round;stroke-miterlimit:50.8;stroke-opacity:1"
       id="path977-7"
       d="m 78.828462,37.451639 c -0.893636,-0.737103 -1.808393,-1.405109 -2.739101,-2.02584 -1.313852,-0.80429 -2.671913,-1.46923 -4.056419,-1.93029 -0.263737,-0.08783 -0.530229,-0.155239 -0.795342,-0.23286 -1.500115,-0.388499 -3.022354,-0.435184 -4.539553,-0.384259 -1.04125,0.0389 -2.082039,0.161563 -3.10754,0.446805 -0.239572,0.06664 -0.477424,0.14688 -0.716138,0.220319 -1.253678,0.415532 -2.46777,1.047485 -3.652454,1.789567 -0.897342,0.581465 -1.792944,1.169822 -2.673639,1.807859 -0.454738,0.30509 -0.87809,0.702724 -1.316517,1.054528 -0.379859,0.266224 -0.745718,0.576015 -1.126092,0.840163 -0.04837,0.03344 -0.09675,0.06683 -0.145125,0.100258 0,0 -1.058889,-1.071351 -1.058889,-1.071351 v 0 c 0.04937,-0.03299 0.09874,-0.06601 0.148106,-0.099 0.384227,-0.244707 0.748036,-0.556541 1.125107,-0.825463 0.446639,-0.349686 0.879906,-0.741576 1.345158,-1.035786 0.893652,-0.621297 1.803305,-1.185008 2.70216,-1.788573 1.19359,-0.759319 2.431025,-1.338075 3.68989,-1.791355 0.496518,-0.165188 0.858973,-0.29895 1.357482,-0.41572 0.818457,-0.191706 1.648112,-0.24999 2.474684,-0.282907 1.52675,-0.04977 3.058927,-0.0029 4.569681,0.372227 0.266323,0.07482 0.53432,0.136948 0.798969,0.224469 0.265831,0.0879 0.528577,0.196382 0.791696,0.301527 1.104047,0.441189 2.201742,0.934977 3.261083,1.586643 0.901185,0.59457 1.79112,1.222758 2.660826,1.918324 0,0 1.001967,1.220725 1.001967,1.220725 z" />
    <path
       style="fill:#000000;fill-opacity:1;stroke:#000000;stroke-width:0;stroke-linejoin:round;stroke-miterlimit:50.8;stroke-opacity:1"
       id="path977-7-6"
       d="m 21.181656,37.451455 c 0.893634,-0.737103 1.808391,-1.405109 2.739099,-2.02584 1.313852,-0.80429 2.671914,-1.46923 4.056419,-1.93029 0.263737,-0.08783 0.530229,-0.155239 0.795341,-0.23286 1.500115,-0.388499 3.022354,-0.435184 4.539554,-0.384259 1.041249,0.0389 2.082038,0.161563 3.107539,0.446805 0.239572,0.06664 0.477424,0.14688 0.716138,0.220319 1.253679,0.415532 2.467771,1.047485 3.652455,1.789567 0.897341,0.581465 1.792945,1.169822 2.673639,1.807859 0.454737,0.30509 0.87809,0.702724 1.316517,1.054528 0.379858,0.266224 0.745717,0.576015 1.126091,0.840164 0.04837,0.03344 0.09675,0.06683 0.145125,0.100257 0,0 1.05889,-1.071351 1.05889,-1.071351 v 0 c -0.04937,-0.03299 -0.09874,-0.06601 -0.148107,-0.099 -0.384226,-0.244708 -0.748035,-0.556542 -1.125106,-0.825464 -0.44664,-0.349686 -0.879907,-0.741576 -1.345158,-1.035786 -0.893653,-0.621297 -1.803305,-1.185008 -2.70216,-1.788573 -1.19359,-0.759319 -2.431025,-1.338075 -3.68989,-1.791355 -0.496518,-0.165188 -0.858973,-0.29895 -1.357483,-0.41572 -0.818457,-0.191706 -1.648112,-0.24999 -2.474684,-0.282907 -1.52675,-0.04977 -3.058927,-0.0029 -4.569681,0.372227 -0.266322,0.07482 -0.534318,0.136948 -0.798969,0.224469 -0.26583,0.0879 -0.528576,0.196382 -0.791694,0.301527 -1.104049,0.441189 -2.201742,0.934977 -3.261084,1.586643 -0.901185,0.59457 -1.791119,1.222758 -2.660824,1.918324 0,0 -1.001967,1.220725 -1.001967,1.220725 z" />
  </g>
</svg>
