<?xml version="1.0" encoding="UTF-8" standalone="no"?>
<svg
   xmlns:dc="http://purl.org/dc/elements/1.1/"
   xmlns:cc="http://creativecommons.org/ns#"
   xmlns:rdf="http://www.w3.org/1999/02/22-rdf-syntax-ns#"
   xmlns:svg="http://www.w3.org/2000/svg"
   xmlns="http://www.w3.org/2000/svg"
   xmlns:sodipodi="http://sodipodi.sourceforge.net/DTD/sodipodi-0.dtd"
   xmlns:inkscape="http://www.inkscape.org/namespaces/inkscape"
   width="100mm"
   height="100mm"
   viewBox="0 0 100 100"
   version="1.1"
   id="svg8"
   inkscape:version="1.0.1 (3bc2e813f5, 2020-09-07)"
   sodipodi:docname="wooly-hat.svg">
  <defs
     id="defs2">
    <inkscape:path-effect
       effect="spiro"
       id="path-effect886"
       is_visible="true"
       lpeversion="1" />
    <linearGradient
       id="linearGradient4178">
      <stop
         id="stop4180"
         offset="0"
         style="stop-color:#8e0000;stop-opacity:1;" />
      <stop
         id="stop4182"
         offset="1"
         style="stop-color:#5b0202;stop-opacity:1;" />
    </linearGradient>
    <linearGradient
       id="linearGradient3197">
      <stop
         style="stop-color:#d70000;stop-opacity:1;"
         offset="0"
         id="stop3199" />
      <stop
         style="stop-color:#ae0000;stop-opacity:1;"
         offset="1"
         id="stop3201" />
    </linearGradient>
  </defs>
  <sodipodi:namedview
     id="base"
     pagecolor="#ffffff"
     bordercolor="#666666"
     borderopacity="1.0"
     inkscape:pageopacity="0.0"
     inkscape:pageshadow="2"
     inkscape:zoom="1.4"
     inkscape:cx="-102.52153"
     inkscape:cy="108.08554"
     inkscape:document-units="mm"
     inkscape:current-layer="layer1"
     inkscape:document-rotation="0"
     showgrid="false"
     inkscape:window-width="1920"
     inkscape:window-height="1017"
     inkscape:window-x="-8"
     inkscape:window-y="-8"
     inkscape:window-maximized="1" />
  <metadata
     id="metadata5">
    <rdf:RDF>
      <cc:Work
         rdf:about="">
        <dc:format>image/svg+xml</dc:format>
        <dc:type
           rdf:resource="http://purl.org/dc/dcmitype/StillImage" />
        <dc:title />
      </cc:Work>
    </rdf:RDF>
  </metadata>
  <g
     inkscape:label="Layer 1"
     inkscape:groupmode="layer"
     id="layer1">
    <path
       sodipodi:type="star"
       style="fill:#ffff00;stroke:#000000;stroke-width:0.47512022;stroke-linejoin:round;stroke-miterlimit:50.79999924;fill-opacity:1;stroke-opacity:1;stroke-dasharray:none"
       id="path841"
       sodipodi:sides="5"
       sodipodi:cx="49.229889"
       sodipodi:cy="51.505829"
       sodipodi:r1="46.505829"
       sodipodi:r2="25.620337"
       sodipodi:arg1="-1.5707963"
       sodipodi:arg2="-0.94247779"
       inkscape:flatsided="false"
       inkscape:rounded="-0.01"
       inkscape:randomized="0"
       d="m 49.22989,5 c -0.298549,0 15.300786,25.954024 15.059255,25.778541 -0.241531,-0.175482 29.262673,6.640134 29.170416,6.356198 -0.09226,-0.283937 -19.955541,22.572146 -19.863284,22.288209 0.09226,-0.283936 2.72752,29.88237 2.969051,29.706887 0.241531,-0.175482 -27.633988,-12.00367 -27.335439,-12.00367 0.298549,0 -27.576973,11.828186 -27.335441,12.003669 0.241531,0.175483 2.876796,-29.990823 2.969053,-29.706886 C 24.955758,59.706885 5.0924744,36.850799 5.0002177,37.134736 4.907961,37.418673 34.412164,30.603058 34.170633,30.778541 33.929102,30.954024 49.528439,5 49.22989,5 Z"
       inkscape:transform-center-x="0.3426531"
       inkscape:transform-center-y="-4.8901056"
       transform="matrix(1.0174116,0,0,1.0697654,-0.08705789,-0.34882675)" />
    <path
       sodipodi:type="star"
       style="fill:#ffe531;fill-opacity:0.526104;stroke:#ffd0ff;stroke-width:0;stroke-linejoin:round;stroke-miterlimit:50.8;stroke-opacity:1"
       id="path845"
       sodipodi:sides="5"
       sodipodi:cx="49.229889"
       sodipodi:cy="51.505829"
       sodipodi:r1="46.505829"
       sodipodi:r2="25.620337"
       sodipodi:arg1="-1.5707963"
       sodipodi:arg2="-0.94247779"
       inkscape:flatsided="false"
       inkscape:rounded="-0.01"
       inkscape:randomized="0"
       d="m 49.22989,5 c -0.298549,0 15.300786,25.954024 15.059255,25.778541 -0.241531,-0.175482 29.262673,6.640134 29.170416,6.356198 -0.09226,-0.283937 -19.955541,22.572146 -19.863284,22.288209 0.09226,-0.283936 2.72752,29.88237 2.969051,29.706887 0.241531,-0.175482 -27.633988,-12.00367 -27.335439,-12.00367 0.298549,0 -27.576973,11.828186 -27.335441,12.003669 0.241531,0.175483 2.876796,-29.990823 2.969053,-29.706886 C 24.955758,59.706885 5.0924744,36.850799 5.0002177,37.134736 4.907961,37.418673 34.412164,30.603058 34.170633,30.778541 33.929102,30.954024 49.528439,5 49.22989,5 Z"
       inkscape:transform-center-x="0.21738395"
       inkscape:transform-center-y="-2.9223481"
       transform="matrix(0.6454626,0,0,0.63929643,18.238138,22.383272)" />
    <path
       sodipodi:type="star"
       style="display:inline;fill:#ffdf00;fill-opacity:0.52610397;stroke:#ffffff;stroke-width:0;stroke-linejoin:round;stroke-miterlimit:50.8;stroke-dasharray:none;stroke-opacity:1"
       id="path853"
       sodipodi:sides="5"
       sodipodi:cx="49.229889"
       sodipodi:cy="51.505829"
       sodipodi:r1="46.505829"
       sodipodi:r2="25.620337"
       sodipodi:arg1="-1.5707963"
       sodipodi:arg2="-0.94247779"
       inkscape:flatsided="false"
       inkscape:rounded="-0.01"
       inkscape:randomized="0"
       d="m 49.22989,5 c -0.298549,0 15.300786,25.954024 15.059255,25.778541 -0.241531,-0.175482 29.262673,6.640134 29.170416,6.356198 -0.09226,-0.283937 -19.955541,22.572146 -19.863284,22.288209 0.09226,-0.283936 2.72752,29.88237 2.969051,29.706887 0.241531,-0.175482 -27.633988,-12.00367 -27.335439,-12.00367 0.298549,0 -27.576973,11.828186 -27.335441,12.003669 0.241531,0.175483 2.876796,-29.990823 2.969053,-29.706886 C 24.955758,59.706885 5.0924744,36.850799 5.0002177,37.134736 4.907961,37.418673 34.412164,30.603058 34.170633,30.778541 33.929102,30.954024 49.528439,5 49.22989,5 Z"
       inkscape:transform-center-x="0.28300837"
       inkscape:transform-center-y="-4.140513"
       transform="matrix(0.84031384,0,0,0.90578373,8.5800086,8.6228026)" />
    <circle
       style="fill:#000000;fill-opacity:1;stroke:#fffc00;stroke-width:0;stroke-linejoin:round;stroke-miterlimit:50.8"
       id="path1113"
       cx="41.159504"
       cy="46.504898"
       rx="4.1426778"
       ry="9.3544331" />
    <ellipse
       style="fill:#000000;fill-opacity:1;stroke:#fffc00;stroke-width:0;stroke-linejoin:round;stroke-miterlimit:50.8"
       id="path1113-6"
       cx="41.245457"
       cy="49.311226"
       rx="4.1426778"
       ry="9.3544331" />
    <ellipse
       style="fill:#000000;fill-opacity:1;stroke:#fffc00;stroke-width:0;stroke-linejoin:round;stroke-miterlimit:50.8"
       id="path1113-6-1"
       cx="57.976219"
       cy="49.311104"
       rx="4.1426778"
       ry="9.3544331" />
    <g
       transform="matrix(0.00322674,0,0,-0.00322674,28.112355,36.296261)"
       fill="#000000"
       stroke="none"
       id="g6">
      <path
         d="m 7373,10949 c -94,-14 -237,-52 -463,-125 -392,-126 -518,-190 -702,-356 -55,-49 -94,-97 -155,-194 -76,-118 -89,-134 -164,-189 -169,-123 -342,-322 -446,-513 -189,-344 -224,-770 -97,-1175 34,-108 100,-255 151,-339 l 41,-67 -96,-32 c -388,-128 -797,-358 -1672,-942 -430,-287 -725,-522 -997,-795 -275,-276 -466,-530 -643,-856 -48,-88 -145,-267 -215,-396 -70,-129 -138,-246 -151,-260 -89,-95 -455,-852 -612,-1266 l -46,-121 -90,-46 c -50,-26 -118,-67 -151,-92 -33,-25 -63,-45 -67,-45 -8,0 -133,-188 -246,-370 C 242,2271 95,1925 23,1530 2,1412 -1,1120 18,1010 60,773 154,601 334,434 534,248 792,116 1128,29 1190,13 1254,0 1270,0 c 15,0 102,29 193,65 319,125 605,208 1027,299 820,176 1674,263 2925,296 1212,32 2307,36 2965,10 1029,-40 1326,-51 1705,-65 237,-9 572,-22 745,-30 178,-8 538,-15 825,-15 317,-1 561,-6 645,-13 74,-7 156,-9 182,-6 252,37 357,345 303,890 -49,491 -217,1170 -407,1639 -65,160 -161,353 -201,403 -57,70 -201,151 -368,206 -36,12 -36,12 -68,134 -96,363 -363,1078 -536,1432 -105,215 -186,344 -353,566 -307,408 -494,627 -671,784 -141,126 -166,145 -356,272 -429,286 -890,528 -1430,753 -128,53 -192,78 -363,141 -23,9 -23,10 23,67 317,389 441,900 333,1367 -39,168 -116,354 -204,493 -19,29 -34,54 -34,56 0,2 35,6 77,10 86,7 303,47 303,56 0,3 -84,48 -186,100 -102,52 -187,98 -190,102 -2,3 104,33 236,64 l 240,58 v 42 c 0,38 -3,43 -27,48 -60,11 -115,16 -288,26 -99,5 -235,17 -302,27 l -123,17 -132,-27 c -72,-14 -133,-25 -134,-24 -1,1 115,58 257,126 143,68 286,144 319,168 33,25 60,46 60,47 0,1 -37,0 -83,-2 -57,-3 -98,1 -136,12 -116,34 -268,20 -562,-55 -86,-21 -220,-50 -299,-64 -78,-14 -148,-29 -154,-33 -13,-8 -306,-20 -306,-12 0,9 283,176 525,310 121,67 226,127 232,134 18,16 -4,86 -26,85 -9,-1 -44,-5 -78,-10 z"
         id="path4" />
    </g>
  </g>
</svg>
