<?xml version="1.0" standalone="no"?>
<!DOCTYPE svg PUBLIC "-//W3C//DTD SVG 20010904//EN"
 "http://www.w3.org/TR/2001/REC-SVG-20010904/DTD/svg10.dtd">
<svg version="1.0" xmlns="http://www.w3.org/2000/svg"
 width="700.000000pt" height="700.000000pt" viewBox="0 0 700.000000 700.000000"
 preserveAspectRatio="xMidYMid meet">
<metadata>
Created by potrace 1.14, written by Peter Selinger 2001-2017
</metadata>
<g transform="translate(0.000000,700.000000) scale(0.100000,-0.100000)"
fill="#000000" stroke="none">
<path d="M3480 6922 c0 -10 -170 -321 -395 -721 -201 -360 -208 -371 -266
-474 -23 -40 -51 -90 -63 -112 -12 -22 -72 -128 -133 -235 -60 -107 -124 -220
-140 -250 -165 -294 -157 -282 -199 -295 -21 -6 -43 -12 -49 -13 -13 -3 -78
-16 -87 -18 -5 -1 -9 -2 -10 -4 -2 -1 -10 -3 -19 -5 -47 -9 -426 -98 -724
-170 -60 -15 -121 -29 -135 -31 -14 -3 -90 -21 -170 -40 -80 -20 -155 -38
-167 -40 -12 -2 -71 -16 -130 -30 -60 -14 -118 -28 -131 -30 -13 -3 -81 -18
-150 -35 -70 -16 -181 -41 -247 -55 -218 -46 -219 -46 -166 -103 15 -16 50
-56 77 -87 27 -31 54 -62 59 -68 12 -12 273 -322 435 -516 58 -69 107 -127
110 -130 3 -3 50 -59 105 -125 587 -702 657 -785 689 -818 19 -20 22 -61 11
-142 -3 -16 -7 -59 -10 -95 -10 -129 -14 -176 -19 -220 -3 -25 -8 -76 -11
-115 -3 -38 -8 -86 -10 -105 -2 -19 -7 -69 -10 -110 -3 -41 -7 -95 -9 -120 -3
-25 -7 -76 -11 -115 -13 -149 -24 -273 -30 -335 -2 -19 -6 -71 -10 -115 -3
-44 -8 -91 -10 -105 -2 -14 -6 -65 -10 -113 -3 -48 -8 -96 -10 -105 -1 -9 -6
-55 -9 -102 -4 -47 -9 -101 -11 -120 -3 -19 -7 -64 -10 -100 -3 -36 -7 -81
-10 -100 -2 -19 -7 -62 -10 -95 -3 -33 -8 -73 -11 -88 -9 -55 5 -57 91 -16
232 111 547 255 1135 522 75 33 162 73 223 101 133 61 174 79 212 96 22 10 74
33 115 53 41 19 95 44 120 55 25 11 85 39 133 61 49 23 92 41 96 41 6 0 455
-203 786 -354 17 -8 179 -82 360 -164 182 -82 362 -164 400 -182 39 -18 167
-77 285 -132 118 -55 225 -106 237 -114 12 -8 32 -14 44 -14 20 0 21 3 14 57
-4 32 -8 64 -10 73 -1 8 -6 51 -9 95 -4 44 -9 91 -11 105 -2 14 -6 57 -9 95
-4 39 -8 93 -11 120 -12 120 -14 144 -20 215 -3 41 -8 89 -10 105 -2 17 -7 66
-10 110 -4 44 -8 96 -10 115 -2 19 -7 73 -10 120 -4 47 -9 93 -10 102 -2 10
-7 61 -10 115 -4 53 -8 105 -10 114 -2 10 -7 62 -10 116 -4 54 -9 105 -10 114
-3 13 -6 52 -20 214 -9 105 -17 195 -20 225 -2 19 -7 67 -11 105 -3 39 -8 77
-9 86 -2 9 6 27 18 40 12 13 44 51 72 84 27 33 52 62 55 65 3 3 86 102 184
220 99 118 193 231 210 250 17 20 49 57 71 84 65 79 394 473 465 556 21 25 69
81 105 125 90 107 157 185 175 205 8 9 38 42 65 74 28 32 62 72 78 90 15 17
26 37 25 45 -2 10 -40 22 -113 38 -60 13 -141 31 -180 39 -38 9 -81 18 -95 20
-14 3 -32 7 -40 10 -8 3 -26 8 -40 11 -35 6 -386 88 -595 138 -60 15 -117 28
-125 30 -12 2 -499 118 -550 130 -38 9 -249 58 -280 65 -84 19 -148 33 -183
40 -21 4 -42 12 -47 16 -5 5 -38 61 -73 124 -35 63 -76 136 -90 163 -15 26
-39 68 -53 95 -15 26 -30 52 -34 57 -4 6 -43 73 -85 150 -96 171 -96 173 -177
315 -36 63 -76 135 -90 160 -14 25 -76 135 -138 245 -62 110 -125 223 -140
250 -36 65 -73 132 -126 226 -23 41 -63 115 -89 165 -65 121 -73 134 -90 134
-8 0 -15 -4 -15 -8z"/>
</g>
</svg>
